<svg xmlns="http://www.w3.org/2000/svg" width="1082.719" height="870.721" viewBox="0 0 1082.719 870.721">
  <g id="Layer_8" data-name="Layer 8" transform="translate(-274.41 -175.748)">
    <path id="Path_354" data-name="Path 354" d="M1105.84,330.93H860.17A17.19,17.19,0,0,0,843,348.12V499h280V348.12a17.2,17.2,0,0,0-17.16-17.19Z" fill="#f5ebdd"/>
    <path id="Path_355" data-name="Path 355" d="M977,306a5.92,5.92,0,0,1,5.91,5.91V407a5.92,5.92,0,0,1-5.91,5.91H880.9A5.92,5.92,0,0,1,875,407V311.9a5.92,5.92,0,0,1,5.9-5.9H977m0-4H880.9a9.91,9.91,0,0,0-9.92,9.91V407a9.92,9.92,0,0,0,9.92,9.91H977a9.91,9.91,0,0,0,9.91-9.91V311.9A9.91,9.91,0,0,0,977,302Z" fill="#ffb7d5"/>
    <path id="Path_356" data-name="Path 356" d="M1129.09,416.54a5.92,5.92,0,0,1,5.91,5.91v95.1a5.92,5.92,0,0,1-5.91,5.91h-95.61a5.92,5.92,0,0,1-5.91-5.91v-95.1a5.92,5.92,0,0,1,5.91-5.91h95.61m0-4h-95.61a9.91,9.91,0,0,0-9.91,9.91v95.1a9.91,9.91,0,0,0,9.91,9.91h95.61a9.91,9.91,0,0,0,9.91-9.91v-95.1a9.91,9.91,0,0,0-9.91-9.91Z" fill="#ffb7d5"/>
    <path id="Path_357" data-name="Path 357" d="M884.25,440.19a5.92,5.92,0,0,1,5.91,5.91v61a5.92,5.92,0,0,1-5.91,5.91H829.91A5.92,5.92,0,0,1,824,507.1v-61a5.92,5.92,0,0,1,5.91-5.91h54.34m0-4H829.91A9.91,9.91,0,0,0,820,446.1v61a9.91,9.91,0,0,0,9.91,9.91h54.34a9.91,9.91,0,0,0,9.91-9.91v-61a9.91,9.91,0,0,0-9.91-9.91Z" fill="#ffb7d5"/>
    <rect id="Rectangle_127" data-name="Rectangle 127" width="86.92" height="60.84" transform="translate(885.47 315.48)" fill="#ffb7d5"/>
    <rect id="Rectangle_128" data-name="Rectangle 128" width="129.41" height="117.82" rx="22.53" transform="translate(918.31 355.8)" fill="#3ec1f3"/>
    <path id="Path_358" data-name="Path 358" d="M901.82,389.26a4.65,4.65,0,0,0-6.57,0l-1,1-1-1a4.65,4.65,0,0,0-6.57,6.57l1,1,6.57,6.57,6.56-6.57,1-1a4.65,4.65,0,0,0,.01-6.57Z" fill="#ffb7d5"/>
    <rect id="Rectangle_129" data-name="Rectangle 129" width="51.18" height="49.25" rx="9.91" transform="translate(949.21 390.08)" fill="#4756df"/>
    <path id="Path_359" data-name="Path 359" d="M992.93,418.76l18.13,14.45a4.73,4.73,0,0,0,7.68-3.7V400.6a4.73,4.73,0,0,0-7.68-3.7l-18.13,14.46a4.73,4.73,0,0,0,0,7.4Z" fill="#4756df"/>
    <path id="Path_360" data-name="Path 360" d="M1119.58,302H846.44A32.43,32.43,0,0,0,814,334.39V524.48a32.43,32.43,0,0,0,32.43,32.43h273.14A32.43,32.43,0,0,0,1152,524.48V334.39A32.43,32.43,0,0,0,1119.58,302ZM1123,499H843V348.12a17.19,17.19,0,0,1,17.19-17.19h245.67a17.2,17.2,0,0,1,17.2,17.19Z" fill="#4756df"/>
    <path id="Path_361" data-name="Path 361" d="M956.93,515.38h52.15a19.32,19.32,0,0,1,19.32,19.32v58.91a19.32,19.32,0,0,1-19.32,19.31h-98.5a6.76,6.76,0,0,1-6.76-6.76h0a6.76,6.76,0,0,1,6.76-6.76h27V534.7a19.32,19.32,0,0,1,19.35-19.32Z" fill="#4756df"/>
    <circle id="Ellipse_66" data-name="Ellipse 66" cx="12.07" cy="12.07" r="12.07" transform="translate(970.94 515.87)" fill="#3ec1f3"/>
    <circle id="Ellipse_67" data-name="Ellipse 67" cx="3.86" cy="3.86" r="3.86" transform="translate(979.15 312.58)" fill="#30242a"/>
    <line id="Line_28" data-name="Line 28" x1="91" transform="translate(937.4 558.84)" fill="none" stroke="#30242a" stroke-miterlimit="10" stroke-width="4"/>
    <path id="Path_362" data-name="Path 362" d="M703.63,612.92h471.83a20,20,0,0,1,20,20v412.64H683.63V632.92A20,20,0,0,1,703.63,612.92Z" fill="#ffb7d5"/>
    <path id="Path_363" data-name="Path 363" d="M1009.43,660.38V730.6H731.09V660.38h278.34m4-4H727.09V734.6h286.34Z" fill="#a15842"/>
    <circle id="Ellipse_68" data-name="Ellipse 68" cx="12.07" cy="12.07" r="12.07" transform="translate(858.19 683.42)" fill="#a15842"/>
    <path id="Path_364" data-name="Path 364" d="M1009.43,782.06V998.11H731.09V782.06h278.34m4-4H727.09v224.05h286.34Z" fill="#a15842"/>
    <circle id="Ellipse_69" data-name="Ellipse 69" cx="12.07" cy="12.07" r="12.07" transform="translate(816.66 878.01)" fill="#a15842"/>
    <circle id="Ellipse_70" data-name="Ellipse 70" cx="12.07" cy="12.07" r="12.07" transform="translate(899.72 878.01)" fill="#a15842"/>
    <line id="Line_29" data-name="Line 29" y2="220.19" transform="translate(870.98 779.99)" fill="none" stroke="#a15842" stroke-miterlimit="10" stroke-width="4"/>
    <rect id="Rectangle_130" data-name="Rectangle 130" width="95.12" height="345.73" transform="translate(1056.89 656.38)" fill="#a15842"/>
    <line id="Line_30" data-name="Line 30" x1="95.61" transform="translate(1056.4 829.24)" fill="none" stroke="#ffb7d5" stroke-miterlimit="10" stroke-width="4"/>
    <path id="Path_365" data-name="Path 365" d="M328.69,612.92H664.36a20,20,0,0,1,20,20v412.64H308.69V632.92A20,20,0,0,1,328.69,612.92Z" fill="#3ec1f3"/>
    <rect id="Rectangle_131" data-name="Rectangle 131" width="260.75" height="267.51" transform="translate(366.15 734.6)" fill="#30242a"/>
    <path id="Path_366" data-name="Path 366" d="M626.9,1002.11H366.15L274.41,814.76H535.15Z" fill="#4756df"/>
    <path id="Path_367" data-name="Path 367" d="M456.93,612.92H366.15l9.66-20.28h71.46Z" fill="#30242a"/>
    <path id="Path_368" data-name="Path 368" d="M626.9,612.92H536.12l9.66-20.28h71.46Z" fill="#30242a"/>
    <circle id="Ellipse_71" data-name="Ellipse 71" cx="17.87" cy="17.87" r="17.87" transform="translate(366.15 656.37)" fill="#f5ebdd"/>
    <line id="Line_31" data-name="Line 31" x2="14.49" transform="translate(364.22 674.24)" fill="none" stroke="#30242a" stroke-linecap="round" stroke-miterlimit="10" stroke-width="4"/>
    <circle id="Ellipse_72" data-name="Ellipse 72" cx="17.87" cy="17.87" r="17.87" transform="translate(441.15 656.37)" fill="#f5ebdd"/>
    <line id="Line_32" data-name="Line 32" y2="14.48" transform="translate(459.02 654.45)" fill="none" stroke="#30242a" stroke-linecap="round" stroke-miterlimit="10" stroke-width="4"/>
    <circle id="Ellipse_73" data-name="Ellipse 73" cx="17.87" cy="17.87" r="17.87" transform="translate(516.16 656.37)" fill="#f5ebdd"/>
    <line id="Line_33" data-name="Line 33" y2="14.48" transform="translate(534.03 654.45)" fill="none" stroke="#30242a" stroke-linecap="round" stroke-miterlimit="10" stroke-width="4"/>
    <circle id="Ellipse_74" data-name="Ellipse 74" cx="17.87" cy="17.87" r="17.87" transform="translate(591.16 656.37)" fill="#f5ebdd"/>
    <line id="Line_34" data-name="Line 34" y2="14.48" transform="translate(609.03 654.45)" fill="none" stroke="#30242a" stroke-linecap="round" stroke-miterlimit="10" stroke-width="4"/>
    <rect id="Rectangle_132" data-name="Rectangle 132" width="148.72" height="12.55" rx="6.275" transform="translate(354.32 850.49)" fill="#30242a"/>
    <path id="Path_369" data-name="Path 369" d="M686.53,227.6c-17.81,11.45-5.79,35.73,10.62,36.69a65.35,65.35,0,0,1,1.94,46.36h25l.09-10.53c22.86,5.69,31.28-3.29,35.71-11.4,5-9.2,3.52-17.81,1.81-29,0,0,8.17-3.25,7.55-8.18-.5-4-9.21-5.47-9.21-5.47-.13-1.76-.22-3.58-.27-5.47a135.515,135.515,0,0,0-1.1-15c-19.2,10.23-43.11,15.54-43.11,15.54S700.05,218.9,686.53,227.6Z" fill="#a15842"/>
    <path id="Path_370" data-name="Path 370" d="M984.13,591.53c10.47,4,18.19-2.75,16.26-6.62-1.26-2.52-37.49-29.7-74.88-57.32L882.68,581c9.83,3.77,16.31,5.9,16.31,5.9s10.62,16.41,26.08,26.07c0,0,16.41,39.59,25.1,38.63,5.84-.65-1.93-23.18-3.86-32.84,0,0,19.32,32.84,31.87,32.84,2.9,0,5.57-2,5.79-6.76,0,0,6.37,1.75,8.7-2.9,1-1.93,1-4.83,1-6.76,0,0,5,1.39,7.73-1.93C1006,627.69,995.92,609.31,984.13,591.53Z" fill="#a15842"/>
    <path id="Path_371" data-name="Path 371" d="M581.27,421.71q-.76-.66-1.71-1.44C580.12,420.75,580.68,421.23,581.27,421.71Z" fill="#ff7235"/>
    <path id="Path_372" data-name="Path 372" d="M843,467.1s-44.56-102.55-62.77-126.51C761.86,316.44,724,317.76,724,317.76l.06-7.11h-25s27,54.08-24.15,77.26c-19.31,62.77-79.19,46.35-93.67,33.8-5.8,10.62-34.77,57.94-19.32,93.67,13.52,28,61.81,22.21,61.81,22.21l9.66-20.28h83.56l31.39-68.52L759,474.82s13.55,34.73,42.49,61.81c20.67,19.34,59.3,35.91,81.23,44.32l42.83-53.36C884.92,497.6,843,467.1,843,467.1Z" fill="#ff7235"/>
    <line id="Line_35" data-name="Line 35" x1="19.89" y2="9.07" transform="translate(607.34 473.48)" fill="none" stroke="#30242a" stroke-linecap="round" stroke-linejoin="round" stroke-width="4"/>
    <line id="Line_36" data-name="Line 36" x1="12.97" y1="87.35" transform="translate(621.41 433.83)" fill="none" stroke="#30242a" stroke-linecap="round" stroke-linejoin="round" stroke-width="4"/>
    <path id="Path_373" data-name="Path 373" d="M716.95,517.27l39.11.04,2.9-42.49-10.62-26.07Z" fill="#ffbe21"/>
    <path id="Path_374" data-name="Path 374" d="M737.83,184.46c-9.73-5.44-25-10.85-42.25-5.48-31.63,9.85-37.7,37.24-41.88,55.38-2.9,12.55-5.8,27-5.8,27s-54.08,3.86-48.28,58.91c-28.75,6.57-58.88,45.26-35.77,82.23a76.6,76.6,0,0,0,15.71,17.73q.95.78,1.71,1.44c14.48,12.55,74.36,29,93.67-33.8,51.19-23.18,24.15-77.26,24.15-77.26a65.35,65.35,0,0,0-1.94-46.36c-16.41-1-28.43-25.24-10.62-36.69,13.52-8.7,29,13.61,29,13.61s23.91-5.31,43.11-15.54v-.11c0-.03,15.38-7.42,19.61-21.14C786,179.31,754.13,165.79,737.83,184.46Z" fill="#ffbe21"/>
    <path id="Path_375" data-name="Path 375" d="M757.47,476.31c-5.48-12.87-14.86-35.72-20.72-54.6" fill="none" stroke="#30242a" stroke-linecap="round" stroke-linejoin="round" stroke-width="4"/>
    <path id="Path_376" data-name="Path 376" d="M944.92,619.85l-3.44-7.9" fill="none" stroke="#30242a" stroke-linecap="round" stroke-linejoin="round" stroke-width="4"/>
    <path id="Path_377" data-name="Path 377" d="M984,644c-6.28-8.19-19.32-26.54-30-40.74" fill="none" stroke="#30242a" stroke-linecap="round" stroke-linejoin="round" stroke-width="4"/>
    <path id="Path_378" data-name="Path 378" d="M995,634c-7.68-11.29-19.45-29-27.44-40.39" fill="none" stroke="#30242a" stroke-linecap="round" stroke-linejoin="round" stroke-width="4"/>
    <path id="Path_379" data-name="Path 379" d="M986.41,591.09c-3.61-5.54-7.66-11.57-12-17.68" fill="none" stroke="#30242a" stroke-linecap="round" stroke-linejoin="round" stroke-width="4"/>
    <path id="Path_380" data-name="Path 380" d="M740.47,183.73c2.22,1.57,4.7,3.4,6.9,5.24" fill="none" stroke="#ca7358" stroke-linecap="round" stroke-linejoin="round" stroke-width="4"/>
    <line id="Line_37" data-name="Line 37" x1="2.39" y2="11.47" transform="translate(643.07 262.48)" fill="none" stroke="#ca7358" stroke-linecap="round" stroke-linejoin="round" stroke-width="4"/>
    <path id="Path_381" data-name="Path 381" d="M597.65,322.08a67.91,67.91,0,0,0,8.73,22.37" fill="none" stroke="#ca7358" stroke-linecap="round" stroke-linejoin="round" stroke-width="4"/>
    <path id="Path_382" data-name="Path 382" d="M723.62,302a64.69,64.69,0,0,1-11.06-5.08" fill="none" stroke="#30242a" stroke-linecap="round" stroke-linejoin="round" stroke-width="4"/>
    <path id="Path_383" data-name="Path 383" d="M689,724l-.28.09Z" fill="none"/>
    <path id="Path_384" data-name="Path 384" d="M690.72,723.25h-.07Z" fill="none"/>
    <path id="Path_385" data-name="Path 385" d="M687.15,724.49h0Z" fill="none"/>
    <path id="Path_386" data-name="Path 386" d="M679.77,724.61h0Z" fill="none"/>
    <path id="Path_387" data-name="Path 387" d="M693.89,721.34Z" fill="none"/>
    <path id="Path_388" data-name="Path 388" d="M681.54,724.86h0Z" fill="none"/>
    <path id="Path_389" data-name="Path 389" d="M685.33,724.8l-.4.05Z" fill="none"/>
    <path id="Path_390" data-name="Path 390" d="M692.36,722.37l-.09.06Z" fill="none"/>
    <path id="Path_391" data-name="Path 391" d="M794.69,715.13a17.85,17.85,0,0,1-31.87,0,17.85,17.85,0,0,1-31.87,0,17.84,17.84,0,0,1-31.86,0,18.1,18.1,0,0,1-2.49,3.67h0c26.63,71.81,10.21,106.58,2.49,176.11a295.131,295.131,0,0,0-1.34,44.42h92.39c3.36-29.28,10.27-68.83,14.22-117.87A34.77,34.77,0,0,1,806.28,752h1c0-9.36-.29-18.55-.76-27.56A17.88,17.88,0,0,1,794.69,715.13Z" fill="#f5ebdd"/>
    <path id="Path_392" data-name="Path 392" d="M667.22,715.13a17.85,17.85,0,0,1-31.87,0,17.85,17.85,0,0,1-31.87,0,17.84,17.84,0,0,1-27.32,5.7c-9,26.52-19.37,35.07-65.39,105.51a375.6,375.6,0,0,0-31.08,58.74l83,42.19c17.31-28.84,43.64-63.9,65.6-99a34.76,34.76,0,0,1,32-61.62c7.44-17.69,12.79-33.18,16.14-43h0a17.94,17.94,0,0,1-9.21-8.52Z" fill="#f5ebdd"/>
    <path id="Path_393" data-name="Path 393" d="M685.33,724.8c.57-.07,1.14-.16,1.7-.28h.12q.81-.19,1.59-.45L689,724c.55-.2,1.1-.41,1.63-.66h.07c.53-.25,1-.52,1.55-.82l.09-.06a17.36,17.36,0,0,0,1.51-1h0a17.613,17.613,0,0,0,2.71-2.54,18.1,18.1,0,0,0,2.49-3.67,17.84,17.84,0,0,0,31.86,0,17.85,17.85,0,0,0,31.87,0,17.85,17.85,0,0,0,31.87,0,17.88,17.88,0,0,0,11.81,9.32,578.662,578.662,0,0,0-10.11-80.76A55.6,55.6,0,0,1,753.17,638c-27.71-15.83-34.65-93.29-36.25-120.72h-83.5c-48.29,43.46-47.32,172.87-56.5,201.24-.25.78-.51,1.53-.76,2.28a17.84,17.84,0,0,0,27.32-5.7,17.85,17.85,0,0,0,31.87,0,17.85,17.85,0,0,0,31.87,0,17.939,17.939,0,0,0,9.17,8.48,17.613,17.613,0,0,0,3.22,1h.16c.46.09.92.16,1.39.21h.38c.53,0,1.07.08,1.61.08a12.127,12.127,0,0,0,1.78-.09Z" fill="#30242a"/>
    <path id="Path_394" data-name="Path 394" d="M712.61,1033H791.8s2.84-18.72,12.87-30.94c-7.83-5.67-14.19-12.71-15.77-24.11-1.35-9.73-.58-22.65,1.24-38.63H697.75A427.875,427.875,0,0,0,712.61,1033Z" fill="#ff7235"/>
    <path id="Path_395" data-name="Path 395" d="M452.83,976l-2.49-1.24a6.263,6.263,0,0,0-.77-.32l74.12,37.88s11-15.08,25.17-21.24a57.919,57.919,0,0,1-4.29-12.18c-2.72-12,5.18-30.12,18.11-51.66l-83-42.19C458.45,935.2,452.83,976,452.83,976Z" fill="#ff7235"/>
    <path id="Path_396" data-name="Path 396" d="M712.61,1033h-2.42a6.28,6.28,0,1,0,0,12.55H843c0-26-22.26-31.86-38.31-43.49-10,12.22-12.87,30.94-12.87,30.94Z" fill="#30242a"/>
    <path id="Path_397" data-name="Path 397" d="M523.69,1012.35l-74.12-37.88a6.06,6.06,0,0,0-4.69,11.15l118,59.94c11.33-23.47-4.87-35.14-14.06-54.45C534.69,997.27,523.69,1012.35,523.69,1012.35Z" fill="#30242a"/>
    <path id="Path_398" data-name="Path 398" d="M771.52,786.75a34.761,34.761,0,0,0,32.843,34.71c1.577-19.71,2.687-41,2.887-63.68v-5.77h-1A34.77,34.77,0,0,0,771.52,786.75Z" fill="#ffbe21"/>
    <path id="Path_399" data-name="Path 399" d="M611.2,798.34a34.73,34.73,0,0,0,17.08,29.92c2.41-3.86,4.78-7.72,7.07-11.57a409.313,409.313,0,0,0,24.9-50.05,34.77,34.77,0,0,0-49,31.7Z" fill="#ffbe21"/>
    <path id="Path_400" data-name="Path 400" d="M753.17,638a55.6,55.6,0,0,0,43.22,5.66c-15-76.47-40.33-126.38-40.33-126.38H716.92C718.52,544.74,725.46,622.2,753.17,638Z" fill="#ffbe21"/>
    <path id="Path_401" data-name="Path 401" d="M753.19,269c-1.68.85-7.71,1.1-9.72-3.7" fill="none" stroke="#30242a" stroke-linecap="round" stroke-linejoin="round" stroke-width="4"/>
    <circle id="Ellipse_75" data-name="Ellipse 75" cx="2.9" cy="2.9" r="2.9" transform="translate(746.4 242.08)" fill="#30242a"/>
    <line id="Line_38" data-name="Line 38" x2="9.65" y2="6.76" transform="translate(694.26 244.01)" fill="none" stroke="#30242a" stroke-linecap="round" stroke-linejoin="round" stroke-width="4"/>
    <line id="Line_39" data-name="Line 39" x2="123.61" transform="translate(632.45 517.31)" fill="none" stroke="#30242a" stroke-linecap="round" stroke-miterlimit="10" stroke-width="4"/>
    <path id="Path_402" data-name="Path 402" d="M667.93,520.21s22.62,32.34,12,35.83C670.11,559.26,668.18,535.11,667.93,520.21Z" fill="none" stroke="#a15842" stroke-linecap="round" stroke-linejoin="round" stroke-width="4"/>
    <path id="Path_403" data-name="Path 403" d="M667.23,520.21s-11.6,29-20.29,24.14C641.28,541.21,655.63,527,667.23,520.21Z" fill="none" stroke="#a15842" stroke-linecap="round" stroke-linejoin="round" stroke-width="4"/>
    <rect id="Rectangle_133" data-name="Rectangle 133" width="168.04" height="12.55" rx="6.275" transform="translate(328.25 512.48)" fill="#30242a"/>
    <path id="Path_404" data-name="Path 404" d="M412.27,516.35c-45.39,0-65.67-32.84-65.67-32.84v81.08a28.05,28.05,0,0,0,28,28h75.23a28.05,28.05,0,0,0,28.05-28V483.51S457.65,516.35,412.27,516.35Z" fill="#ffb7d5"/>
    <path id="Path_405" data-name="Path 405" d="M412.27,516.35c45.38,0,65.66-32.84,65.66-32.84H346.6S366.88,516.35,412.27,516.35Z" fill="#a15842"/>
    <circle id="Ellipse_76" data-name="Ellipse 76" cx="12.07" cy="12.07" r="12.07" transform="translate(401.64 459.37)" fill="#30242a"/>
    <circle id="Ellipse_77" data-name="Ellipse 77" cx="17.87" cy="17.87" r="17.87" transform="translate(396.81 372.45)" fill="#f5ebdd"/>
    <circle id="Ellipse_78" data-name="Ellipse 78" cx="26.32" cy="26.32" r="26.32" transform="translate(388.67 301.96)" fill="#f5ebdd"/>
    <path id="Path_406" data-name="Path 406" d="M1293,809s-9.19,20.68-33.31,20.68-33.3-20.68-33.3-20.68-67.76,155.06-1.15,236.6h68.92C1360.77,964,1293,809,1293,809Z" fill="#3ec1f3"/>
    <path id="Path_407" data-name="Path 407" d="M1259.7,829.64c24.12,0,33.31-20.68,33.31-20.68h-66.62S1235.58,829.64,1259.7,829.64Z" fill="#30242a"/>
    <path id="Path_408" data-name="Path 408" d="M1322,947c-37.49.67-81.82,14.2-116,62" fill="none" stroke="#f5ebdd" stroke-linecap="round" stroke-linejoin="round" stroke-width="4"/>
    <path id="Path_409" data-name="Path 409" d="M1200,909c25.16-6.14,72.82-12,119-1" fill="none" stroke="#f5ebdd" stroke-linecap="round" stroke-linejoin="round" stroke-width="4"/>
    <path id="Path_410" data-name="Path 410" d="M1318.77,986.81C1302,987,1271,1006,1274.42,1044.3" fill="none" stroke="#f5ebdd" stroke-linecap="round" stroke-linejoin="round" stroke-width="4"/>
    <line id="Line_40" data-name="Line 40" x1="18.44" y2="161.25" transform="translate(1262.02 657.38)" fill="none" stroke="#30242a" stroke-miterlimit="10" stroke-width="4"/>
    <line id="Line_41" data-name="Line 41" x1="23.18" y2="95.16" transform="translate(1266.2 722.15)" fill="none" stroke="#30242a" stroke-miterlimit="10" stroke-width="4"/>
    <ellipse id="Ellipse_79" data-name="Ellipse 79" cx="9.69" cy="40.44" rx="9.69" ry="40.44" transform="translate(1162.84 743.089) rotate(-66.85)" fill="#30242a"/>
    <ellipse id="Ellipse_80" data-name="Ellipse 80" cx="41.93" cy="9.31" rx="41.93" ry="9.31" transform="translate(1272.092 771.873) rotate(-20.66)" fill="#30242a"/>
    <ellipse id="Ellipse_81" data-name="Ellipse 81" cx="7.21" cy="23.55" rx="7.21" ry="23.55" transform="translate(1229.026 718.758) rotate(-54.06)" fill="#30242a"/>
    <line id="Line_42" data-name="Line 42" x2="45.3" y2="134.88" transform="translate(1212.94 683.74)" fill="none" stroke="#30242a" stroke-miterlimit="10" stroke-width="4"/>
    <path id="Path_411" data-name="Path 411" d="M1271.25,692.73a26.67,26.67,0,1,1,35.81,35.17A49.67,49.67,0,0,0,1271.25,692.73Z" fill="#ff7235"/>
    <path id="Path_412" data-name="Path 412" d="M1285.2,707.81a49.89,49.89,0,0,1,21.59-27.7" fill="none" stroke="#f5ebdd" stroke-linecap="round" stroke-miterlimit="10" stroke-width="4"/>
    <path id="Path_413" data-name="Path 413" d="M1289.65,711.36a49.47,49.47,0,0,1,30-18.48" fill="none" stroke="#f5ebdd" stroke-linecap="round" stroke-miterlimit="10" stroke-width="4"/>
    <path id="Path_414" data-name="Path 414" d="M1307.06,727.9a26.67,26.67,0,0,1-35.81-35.17,49.67,49.67,0,0,1,35.81,35.17Z" fill="#ff7235"/>
    <path id="Path_415" data-name="Path 415" d="M1230.31,654.11A26.67,26.67,0,1,0,1198.62,693a49.7,49.7,0,0,1,31.69-38.89Z" fill="#ff7235"/>
    <path id="Path_416" data-name="Path 416" d="M1218.11,670.65a49.8,49.8,0,0,0-24.52-25.14" fill="none" stroke="#f5ebdd" stroke-linecap="round" stroke-miterlimit="10" stroke-width="4"/>
    <path id="Path_417" data-name="Path 417" d="M1214.09,674.66a49.471,49.471,0,0,0-31.9-15" fill="none" stroke="#f5ebdd" stroke-linecap="round" stroke-miterlimit="10" stroke-width="4"/>
    <path id="Path_418" data-name="Path 418" d="M1198.62,693a26.67,26.67,0,0,0,31.69-38.93A49.7,49.7,0,0,0,1198.62,693Z" fill="#ff7235"/>
    <path id="Path_419" data-name="Path 419" d="M1306,642.27a26.67,26.67,0,1,0-47.61,15.91A49.69,49.69,0,0,1,1306,642.27Z" fill="#ff7235"/>
    <path id="Path_420" data-name="Path 420" d="M1286.86,649.71a49.849,49.849,0,0,0-7.26-34.37" fill="none" stroke="#f5ebdd" stroke-linecap="round" stroke-miterlimit="10" stroke-width="4"/>
    <path id="Path_421" data-name="Path 421" d="M1281.32,650.94a49.51,49.51,0,0,0-18.9-29.77" fill="none" stroke="#f5ebdd" stroke-linecap="round" stroke-miterlimit="10" stroke-width="4"/>
    <path id="Path_422" data-name="Path 422" d="M1258.41,658.18A26.67,26.67,0,0,0,1306,642.27a49.69,49.69,0,0,0-47.59,15.91Z" fill="#ff7235"/>
    <path id="Path_423" data-name="Path 423" d="M1231.31,655.11A49.7,49.7,0,0,0,1199.62,694" fill="none" stroke="#f5ebdd" stroke-linecap="round" stroke-miterlimit="10" stroke-width="4"/>
    <path id="Path_424" data-name="Path 424" d="M1306.47,642.27a49.69,49.69,0,0,0-48,14.62" fill="none" stroke="#f5ebdd" stroke-linecap="round" stroke-miterlimit="10" stroke-width="4"/>
    <path id="Path_425" data-name="Path 425" d="M1309.71,725.85a49.7,49.7,0,0,0-37.39-33.49" fill="none" stroke="#f5ebdd" stroke-linecap="round" stroke-miterlimit="10" stroke-width="4"/>
  </g>
</svg>
