<svg xmlns="http://www.w3.org/2000/svg" width="1187.42" height="871.763" viewBox="0 0 1187.42 871.763">
  <g id="Layer_11" data-name="Layer 11" transform="translate(-215.58 -177.59)">
    <path id="Path_652" data-name="Path 652" d="M619.93,207.16H639.1A164.31,164.31,0,0,1,803.41,371.47V695.65H455.62V371.47A164.31,164.31,0,0,1,619.93,207.16Z" fill="#ffb7d5"/>
    <path id="Path_653" data-name="Path 653" d="M692.75,502.63v198.1H538.25V502.63h154.5m4-4H534.25v206.1h162.5Z" fill="#ca7358"/>
    <rect id="Rectangle_165" data-name="Rectangle 165" width="162.5" height="42.61" transform="translate(534.25 498.63)" fill="#ca7358"/>
    <path id="Path_654" data-name="Path 654" d="M533.47,395.62v306.1H440.4V395.62h93.07m4-4H436.4v314.1H537.47Z" fill="#ca7358"/>
    <path id="Path_655" data-name="Path 655" d="M820.32,333.69v367H697.53v-367H820.32m4-4H693.53v375H824.32Z" fill="#ca7358"/>
    <path id="Path_656" data-name="Path 656" d="M746.32,379.73h1.91a16.38,16.38,0,0,1,16.38,16.38v38.11H729.94V396.11a16.38,16.38,0,0,1,16.38-16.38Z" fill="#ca7358"/>
    <line id="Line_128" data-name="Line 128" x2="42.6" transform="translate(725.98 409.45)" fill="none" stroke="#ffb7d5" stroke-linecap="round" stroke-linejoin="round" stroke-width="4"/>
    <path id="Path_657" data-name="Path 657" d="M746.32,477.49h1.91a16.38,16.38,0,0,1,16.38,16.38V532H729.94V493.88a16.38,16.38,0,0,1,16.38-16.38Z" fill="#f5ebdd"/>
    <line id="Line_129" data-name="Line 129" x2="42.6" transform="translate(725.98 507.22)" fill="none" stroke="#ffb7d5" stroke-linecap="round" stroke-linejoin="round" stroke-width="4"/>
    <path id="Path_658" data-name="Path 658" d="M746.32,575.26h1.91a16.38,16.38,0,0,1,16.38,16.38v38.11H729.94V591.64A16.38,16.38,0,0,1,746.32,575.26Z" fill="#f5ebdd"/>
    <line id="Line_130" data-name="Line 130" x2="42.6" transform="translate(725.98 604.98)" fill="none" stroke="#ffb7d5" stroke-linecap="round" stroke-linejoin="round" stroke-width="4"/>
    <path id="Path_659" data-name="Path 659" d="M746.32,673h1.91a16.38,16.38,0,0,1,16.38,16.38v35H729.94v-35A16.38,16.38,0,0,1,746.32,673Z" fill="#30242a"/>
    <path id="Path_660" data-name="Path 660" d="M466.32,460.73h1.91a16.38,16.38,0,0,1,16.38,16.38v38.11H449.94V477.11a16.38,16.38,0,0,1,16.38-16.38Z" fill="#f5ebdd"/>
    <line id="Line_131" data-name="Line 131" x2="42.6" transform="translate(445.98 490.45)" fill="none" stroke="#ffb7d5" stroke-linecap="round" stroke-linejoin="round" stroke-width="4"/>
    <path id="Path_661" data-name="Path 661" d="M466.32,558.49h1.91a16.38,16.38,0,0,1,16.38,16.38V613H449.94V574.88A16.38,16.38,0,0,1,466.32,558.49Z" fill="#f5ebdd"/>
    <line id="Line_132" data-name="Line 132" x2="42.6" transform="translate(445.98 588.22)" fill="none" stroke="#ffb7d5" stroke-linecap="round" stroke-linejoin="round" stroke-width="4"/>
    <path id="Path_662" data-name="Path 662" d="M466.32,656.26h1.91a16.38,16.38,0,0,1,16.38,16.38v38.11H449.94V672.64A16.38,16.38,0,0,1,466.32,656.26Z" fill="#ca7358"/>
    <line id="Line_133" data-name="Line 133" x2="42.6" transform="translate(445.98 685.98)" fill="none" stroke="#ffb7d5" stroke-linecap="round" stroke-linejoin="round" stroke-width="4"/>
    <rect id="Rectangle_166" data-name="Rectangle 166" width="130.79" height="16.35" transform="translate(693.53 329.69)" fill="#ca7358"/>
    <rect id="Rectangle_167" data-name="Rectangle 167" width="101.07" height="16.35" transform="translate(436.4 383.69)" fill="#ca7358"/>
    <rect id="Rectangle_168" data-name="Rectangle 168" width="34.68" height="44.59" transform="translate(563.48 579.88)" fill="#f5ebdd"/>
    <line id="Line_134" data-name="Line 134" x2="42.61" transform="translate(559.51 599.7)" fill="none" stroke="#ffb7d5" stroke-linecap="round" stroke-linejoin="round" stroke-width="4"/>
    <line id="Line_135" data-name="Line 135" y1="26.75" transform="translate(580.82 599.7)" fill="none" stroke="#ffb7d5" stroke-linecap="round" stroke-linejoin="round" stroke-width="4"/>
    <rect id="Rectangle_169" data-name="Rectangle 169" width="34.68" height="44.59" transform="translate(563.48 660.41)" fill="#ca7358"/>
    <line id="Line_136" data-name="Line 136" x2="42.61" transform="translate(559.51 680.22)" fill="none" stroke="#ffb7d5" stroke-linecap="round" stroke-linejoin="round" stroke-width="4"/>
    <line id="Line_137" data-name="Line 137" y1="26.76" transform="translate(580.82 680.22)" fill="none" stroke="#ffb7d5" stroke-linecap="round" stroke-linejoin="round" stroke-width="4"/>
    <rect id="Rectangle_170" data-name="Rectangle 170" width="34.68" height="44.59" transform="translate(628.87 579.88)" fill="#30242a"/>
    <line id="Line_138" data-name="Line 138" x2="42.61" transform="translate(624.91 599.7)" fill="none" stroke="#ffb7d5" stroke-linecap="round" stroke-linejoin="round" stroke-width="4"/>
    <line id="Line_139" data-name="Line 139" y1="26.75" transform="translate(646.21 599.7)" fill="none" stroke="#ffb7d5" stroke-linecap="round" stroke-linejoin="round" stroke-width="4"/>
    <rect id="Rectangle_171" data-name="Rectangle 171" width="34.68" height="44.59" transform="translate(628.87 660.41)" fill="#f5ebdd"/>
    <line id="Line_140" data-name="Line 140" x2="42.61" transform="translate(624.91 680.22)" fill="none" stroke="#ffb7d5" stroke-linecap="round" stroke-linejoin="round" stroke-width="4"/>
    <line id="Line_141" data-name="Line 141" y1="26.76" transform="translate(646.21 680.22)" fill="none" stroke="#ffb7d5" stroke-linecap="round" stroke-linejoin="round" stroke-width="4"/>
    <circle id="Ellipse_107" data-name="Ellipse 107" cx="25.76" cy="25.76" r="25.76" transform="translate(531.52 276.68)" fill="#f5ebdd"/>
    <rect id="Rectangle_172" data-name="Rectangle 172" width="436.97" height="29.73" transform="translate(411.03 695.81)" fill="#f5ebdd"/>
    <path id="Path_663" data-name="Path 663" d="M636.42,177.59H622.61C514,177.59,425.9,265.67,425.9,374.31V725.54H833.14V374.31C833.14,265.67,745.06,177.59,636.42,177.59ZM614.65,695.81h-159V448.1h159Zm0-277.44h-159V375.32a168,168,0,0,1,159-167.76ZM803.41,695.81h-159V448.1h159Zm0-277.44h-159V207.56a168,168,0,0,1,159,167.76Z" fill="#f5ebdd"/>
    <path id="Path_664" data-name="Path 664" d="M734.15,669.7s-68.66-164.8-71.66-207.76c-10.08-144.59,146.78-62.22,171.31-48,17.86,10.36,87.9,49.55,101.88,63.52,9,9,2.74,15.67,2.74,15.67s10.51,13.8-4.27,15.44c10.51,13.8-6.25,15.67-6.25,15.67s4.49,13.47-12.92,9.42c-18.76-4.37-161-65.94-161-65.94s31.78,100.33,41.7,132.07Z" fill="#a15842"/>
    <path id="Path_665" data-name="Path 665" d="M887.48,522.17c3.38-.67,5.66-2.62,5-6.81-2.15-13.76-25.14-26.76-25.14-26.76s9.22-22.19-8.88-39.33" fill="none" stroke="#30242a" stroke-linecap="round" stroke-miterlimit="10" stroke-width="4"/>
    <path id="Path_666" data-name="Path 666" d="M927.67,523.53c-8.25-4.83-38.49-22.52-45.66-26.2" fill="none" stroke="#30242a" stroke-linecap="round" stroke-miterlimit="10" stroke-width="4"/>
    <path id="Path_667" data-name="Path 667" d="M934.43,508.12c-10.32-6.18-35.46-21.83-45.84-27.27" fill="none" stroke="#30242a" stroke-linecap="round" stroke-miterlimit="10" stroke-width="4"/>
    <path id="Path_668" data-name="Path 668" d="M938.18,491.22c-13-8.62-37.52-24.59-47.22-29.49" fill="none" stroke="#30242a" stroke-linecap="round" stroke-miterlimit="10" stroke-width="4"/>
    <path id="Path_669" data-name="Path 669" d="M880.85,495.43c3.46-6.26,9.38-18.7,9.7-38.64" fill="none" stroke="#30242a" stroke-linecap="round" stroke-miterlimit="10" stroke-width="4"/>
    <line id="Line_142" data-name="Line 142" x1="23.42" y1="10.64" transform="translate(730.18 459.42)" fill="none" stroke="#30242a" stroke-linecap="round" stroke-linejoin="round" stroke-width="4"/>
    <rect id="Rectangle_173" data-name="Rectangle 173" width="19.27" height="166.61" transform="translate(396.77 956.95) rotate(-90)" fill="#a15842"/>
    <path id="Path_670" data-name="Path 670" d="M590.82,1037.65,549.55,790h25.28a10.2,10.2,0,0,0,0-20.4H385.56a10.2,10.2,0,0,0,0,20.4h25l-41.27,247.63a8.56,8.56,0,0,0,8.44,10h0a8.57,8.57,0,0,0,8.37-6.74L440.81,790h78.53L574,1040.88a8.55,8.55,0,0,0,8.36,6.74h0a8.56,8.56,0,0,0,8.46-9.97Z" fill="#ffbe21"/>
    <path id="Path_671" data-name="Path 671" d="M574.83,790a10.2,10.2,0,0,0,0-20.4H385.56a10.2,10.2,0,0,0,0,20.4h25l-.05.31H440.7l.07-.31H519.3l.07.31H549.6l-.05-.31Z" fill="#a15842"/>
    <path id="Path_672" data-name="Path 672" d="M495.94,1029.76H260.86L216.53,893.34c-3.29-10.12,2.25-18.32,12.36-18.32H427.34c10.12,0,21,8.2,24.27,18.32Z" fill="#ffb7d5"/>
    <path id="Path_673" data-name="Path 673" d="M644,1029.76H412.85a13.65,13.65,0,0,1-13,17.86H631a13.64,13.64,0,0,0,13-17.86Z" fill="#ffb7d5"/>
    <path id="Path_674" data-name="Path 674" d="M412.85,1029.76H261.09l1.77,5.46a17.94,17.94,0,0,0,17.06,12.4h120a13.65,13.65,0,0,0,12.93-17.86Z" fill="#ca7358"/>
    <path id="Path_675" data-name="Path 675" d="M479.92,1029.76H278.91L236.96,900.81H437.97Z" fill="#f5ebdd"/>
    <path id="Path_676" data-name="Path 676" d="M404.72,1004.16H342.8c-6.88,0-14.26-5.58-16.5-12.45l-14.93-46c-2.23-6.87,1.53-12.45,8.41-12.45H381.7c6.87,0,14.25,5.58,16.49,12.45l14.93,46C415.35,998.58,411.59,1004.16,404.72,1004.16Z" fill="#3ec1f3"/>
    <line id="Line_143" data-name="Line 143" x2="232" transform="translate(262 1027.78)" fill="none" stroke="#ca7358" stroke-linecap="round" stroke-miterlimit="10" stroke-width="4"/>
    <path id="Path_677" data-name="Path 677" d="M397.82,943.51,373.4,969.59c-4.73,5-13.74,5-21.75,0l-40.32-25.42" fill="none" stroke="#f5ebdd" stroke-linecap="round" stroke-miterlimit="10" stroke-width="4"/>
    <line id="Line_144" data-name="Line 144" x2="38.5" y2="24.27" transform="translate(374.36 968.83)" fill="none" stroke="#f5ebdd" stroke-linecap="round" stroke-miterlimit="10" stroke-width="4"/>
    <line id="Line_145" data-name="Line 145" y1="24.59" x2="23.02" transform="translate(326.92 969.1)" fill="none" stroke="#f5ebdd" stroke-linecap="round" stroke-miterlimit="10" stroke-width="4"/>
    <path id="Path_678" data-name="Path 678" d="M400.19,951.16c-7.7,0-16-6.3-18.54-14-1.18-3.64-.87-7,.88-9.39,1.61-2.2,4.32-3.42,7.64-3.42,7.7,0,16,6.3,18.53,14.05,1.19,3.64.88,7-.88,9.38A9.16,9.16,0,0,1,400.19,951.16Z" fill="#4756df"/>
    <path id="Path_679" data-name="Path 679" d="M390.17,926.3c6.78,0,14.4,5.8,16.63,12.66,1,3,.77,5.72-.59,7.6a7.17,7.17,0,0,1-6,2.6c-6.79,0-14.4-5.8-16.63-12.67-1-3-.77-5.71.59-7.59a7.118,7.118,0,0,1,6-2.6m0-4c-8.52,0-13.19,6.91-10.42,15.43s11.92,15.43,20.44,15.43,13.19-6.91,10.42-15.43S398.69,922.3,390.17,922.3Z" fill="#f5ebdd"/>
    <path id="Path_680" data-name="Path 680" d="M1213.09,579.44h-.25c-1.78,3.22-13.51,22.91-34.12,22.91s-32.34-19.69-34.13-22.91h-.24l-32.08,144.81h132.9Z" fill="#3ec1f3"/>
    <path id="Path_681" data-name="Path 681" d="M1127.47,656.47c27.22,2.85,69.49,27.16,84.18,67.36" fill="none" stroke="#f5ebdd" stroke-linecap="round" stroke-miterlimit="10" stroke-width="4"/>
    <path id="Path_682" data-name="Path 682" d="M1145.11,725c3.05-32.75,29-86.88,75.7-103.81" fill="none" stroke="#f5ebdd" stroke-linecap="round" stroke-miterlimit="10" stroke-width="4"/>
    <path id="Path_683" data-name="Path 683" d="M1178.23,591.68c-11.47,12.09-25.93,23.35-42.29,30.91" fill="none" stroke="#f5ebdd" stroke-linecap="round" stroke-miterlimit="10" stroke-width="4"/>
    <path id="Path_684" data-name="Path 684" d="M1178.72,602.35c20.61,0,32.34-19.69,34.12-22.91h-68.25C1146.38,582.66,1158.1,602.35,1178.72,602.35Z" fill="#30242a"/>
    <path id="Path_685" data-name="Path 685" d="M991.46,1047.62h0a8.79,8.79,0,0,1-8.35-11.54l27.58-83.92a8.78,8.78,0,0,1,8.35-6h19.3a8.79,8.79,0,0,1,7.68,13.08l-46.88,83.92A8.81,8.81,0,0,1,991.46,1047.62Z" fill="#a15842"/>
    <path id="Path_686" data-name="Path 686" d="M1360.43,1047.62h0a8.79,8.79,0,0,0,8.35-11.54l-27.58-83.92a8.79,8.79,0,0,0-8.35-6h-19.31a8.79,8.79,0,0,0-7.67,13.08l46.88,83.92a8.8,8.8,0,0,0,7.68,4.46Z" fill="#a15842"/>
    <rect id="Rectangle_174" data-name="Rectangle 174" width="452.56" height="259.08" transform="translate(950.44 722.61)" fill="#ffb7d5"/>
    <path id="Path_687" data-name="Path 687" d="M1368.94,756V948.28H984.5V756h384.44m4-4H980.5V952.28h392.44Z" fill="#ca7358"/>
    <line id="Line_146" data-name="Line 146" y2="201.02" transform="translate(1176.3 751.64)" fill="none" stroke="#ca7358" stroke-miterlimit="10" stroke-width="4"/>
    <circle id="Ellipse_108" data-name="Ellipse 108" cx="11.65" cy="11.65" r="11.65" transform="translate(1210.13 840.5)" fill="#30242a"/>
    <circle id="Ellipse_109" data-name="Ellipse 109" cx="11.65" cy="11.65" r="11.65" transform="translate(1120.01 840.5)" fill="#30242a"/>
    <path id="Path_688" data-name="Path 688" d="M509.52,645.2h0a29.27,29.27,0,0,1,29.27,29.27v95.41H480.25V674.47a29.27,29.27,0,0,1,29.27-29.27Z" fill="#4756df"/>
    <rect id="Rectangle_175" data-name="Rectangle 175" width="58.55" height="54.55" transform="translate(480.25 682.59)" fill="#3ec1f3"/>
    <rect id="Rectangle_176" data-name="Rectangle 176" width="26.02" height="18.43" transform="translate(496.51 630.02)" fill="#30242a"/>
    <circle id="Ellipse_110" data-name="Ellipse 110" cx="36.2" cy="36.2" r="36.2" transform="translate(831.36 402.88)" fill="#30242a"/>
    <path id="Path_689" data-name="Path 689" d="M839.45,461.46c2.89,1.31-21.62-56-33.9-46.92C794,423.05,824.83,454.81,839.45,461.46Z" fill="#ffbe21"/>
    <path id="Path_690" data-name="Path 690" d="M836.34,461.35c2.4,3,60.25-16,52.52-27.78C881.44,422.27,833.94,458.37,836.34,461.35Z" fill="#ffbe21"/>
    <circle id="Ellipse_111" data-name="Ellipse 111" cx="23.31" cy="23.31" r="23.31" transform="translate(883.93 373.12)" fill="#30242a"/>
    <path id="Path_691" data-name="Path 691" d="M748.04,809.56H867.07l6.28-29.76H729.93Z" fill="#ca7358"/>
    <path id="Path_692" data-name="Path 692" d="M747,711.36s24.31-31.74,69.93-34.72l30.29-65.07c-8.09-1.29-13.92-2.11-13.92-2.11,1.2-2.9,5.28-12.5,10.21-24.34-8.92-5.93-23.49-17.59-26.86-32.3,10.7-1.61,32-11.71,23.59-29.38-10.3-21.67-37.56-5-37.56-5A62.871,62.871,0,0,1,787.5,485c-3.31.34-12.79-.67-19.52-4.31l-.45-.26a228.994,228.994,0,0,0-9.68,21.73c-.75,1.9-1.47,3.74-2.23,5.49,0,0-9.41-1.6-11.34,2.29-2.39,4.8,4.77,11,4.77,11-5.72,10.76-10.79,19.57-8.95,30.73,1.62,9.85,10.91,21.82,32.8,23.82l-11,34.71-41,71.19C728.94,686.1,739.74,695.07,747,711.36Z" fill="#ca7358"/>
    <path id="Path_693" data-name="Path 693" d="M1036.68,572c-12.91-16.11-59-81.89-74.39-94.23-9.92-7.94-15.87-1-15.87-1s-14.88-8.93-14.88,5.95c-14.88-8.93-14.88,7.93-14.88,7.93s-13.89-3-7.93,13.89c6.41,18.16,78.36,149.24,78.36,149.24s-74.4-27.77-103.16-35.17c-5.28-1.36-11.75-2.7-18.28-3.92-4.21,9.86-10.79,26-21.4,53-14.4,36.55-7.4,73.09,34.27,87.59l7.39-35s77,28.94,120,27.77C1151.74,744.09,1054.54,594.31,1036.68,572Z" fill="#ca7358"/>
    <path id="Path_694" data-name="Path 694" d="M787.5,485a62.87,62.87,0,0,0,15.22,33.53s27.26-16.72,37.56,5c8.41,17.67-12.89,27.77-23.59,29.38,3.37,14.71,17.94,26.37,26.86,32.3,7.32-17.59,16.5-40.14,20.82-53,6.39-19.06,9.69-48.6-19-69.94-26.85-19.93-57.62-6.71-64.56.23-4.12,4.12-8,8-13.24,18l.45.26C774.71,484.29,784.19,485.3,787.5,485Z" fill="#30242a"/>
    <path id="Path_695" data-name="Path 695" d="M844.25,667.72c10.61-26.94,17.19-43.12,21.4-53-6.44-1.21-12.93-2.3-18.39-3.17L817,676.64c-45.62,3-69.93,34.72-69.93,34.72-7.3-16.29-18.1-25.26-26.09-30l-9.14,15.87a54.11,54.11,0,0,0,1,54.48l17.08,28.07H873.35l5.17-24.49C836.85,740.81,829.85,704.27,844.25,667.72Z" fill="#ffbe21"/>
    <path id="Path_696" data-name="Path 696" d="M773.52,577.54a65.871,65.871,0,0,0,18.38-2.72" fill="none" stroke="#30242a" stroke-linecap="round" stroke-miterlimit="10" stroke-width="4"/>
    <path id="Path_697" data-name="Path 697" d="M919.53,524.85c.73-2.54,2.53-4.19,6.06-3.94,13.89,1,28.76,22.82,28.76,22.82s21.35-11,39.94,5.55" fill="none" stroke="#30242a" stroke-linecap="round" stroke-miterlimit="10" stroke-width="4"/>
    <path id="Path_698" data-name="Path 698" d="M918.68,490.11c7.76,12.23,22.18,35,25.75,40.72" fill="none" stroke="#30242a" stroke-linecap="round" stroke-miterlimit="10" stroke-width="4"/>
    <path id="Path_699" data-name="Path 699" d="M933,481.62c8,11.78,22,31.88,27.31,40.29" fill="none" stroke="#30242a" stroke-linecap="round" stroke-miterlimit="10" stroke-width="4"/>
    <path id="Path_700" data-name="Path 700" d="M948.66,477c10,12.76,25.32,32.56,30.49,41" fill="none" stroke="#30242a" stroke-linecap="round" stroke-miterlimit="10" stroke-width="4"/>
    <path id="Path_701" data-name="Path 701" d="M946.42,530.83c6-4,17.85-10.91,37.69-12.89" fill="none" stroke="#30242a" stroke-linecap="round" stroke-miterlimit="10" stroke-width="4"/>
    <line id="Line_147" data-name="Line 147" x1="17.58" y1="2.11" transform="translate(815.49 605.23)" fill="none" stroke="#30242a" stroke-linecap="round" stroke-miterlimit="10" stroke-width="4"/>
    <line id="Line_148" data-name="Line 148" x1="0.99" y1="1.98" transform="translate(769.86 797.66)" fill="none" stroke="#30242a" stroke-linecap="round" stroke-miterlimit="10" stroke-width="4"/>
    <line id="Line_149" data-name="Line 149" x1="9.93" y1="3.9" transform="translate(875 718.3)" fill="none" stroke="#30242a" stroke-linecap="round" stroke-miterlimit="10" stroke-width="4"/>
    <line id="Line_150" data-name="Line 150" x1="22.55" y1="8.86" transform="translate(987.35 651.91)" fill="none" stroke="#30242a" stroke-linecap="round" stroke-miterlimit="10" stroke-width="4"/>
    <line id="Line_151" data-name="Line 151" x1="143.42" transform="translate(729.93 779.8)" fill="none" stroke="#30242a" stroke-linecap="round" stroke-linejoin="round" stroke-width="4"/>
    <path id="Path_702" data-name="Path 702" d="M815.49,676.64,801,709a27.55,27.55,0,0,1-25.13,16.27h-71" fill="none" stroke="#30242a" stroke-linecap="round" stroke-linejoin="round" stroke-width="4"/>
    <path id="Path_703" data-name="Path 703" d="M754.47,533c1.71,1.47,8.65,3.47,12.36-1.54" fill="none" stroke="#30242a" stroke-linecap="round" stroke-miterlimit="10" stroke-width="4"/>
    <line id="Line_152" data-name="Line 152" x1="12.56" y2="4.87" transform="translate(812.37 529.89)" fill="none" stroke="#a15842" stroke-linecap="round" stroke-miterlimit="10" stroke-width="4"/>
    <path id="Path_704" data-name="Path 704" d="M778.08,510.24a7.21,7.21,0,0,1-8.84-5.7" fill="none" stroke="#30242a" stroke-linecap="round" stroke-linejoin="round" stroke-width="4"/>
    <path id="Path_705" data-name="Path 705" d="M811.82,547.6l-4.54,18.55a5.75,5.75,0,0,0,6.92,7l16.95-4a5.75,5.75,0,0,0,3-9.34L821.74,545.3a5.75,5.75,0,0,0-9.92,2.3Z" fill="#f4e6d8"/>
    <line id="Line_153" data-name="Line 153" transform="translate(662.81 984.13)" fill="#30242a"/>
    <path id="Path_706" data-name="Path 706" d="M850,978.62c-9.92-11.91-44.43-55-44.43-55" fill="none" stroke="#30242a" stroke-linecap="round" stroke-linejoin="round" stroke-width="4"/>
    <path id="Path_707" data-name="Path 707" d="M1118,882c-3.64-9.84-10.32-26.33-18.56-46.13L1011,861.68l-10.14,3.2c4.56,29.49,8.06,43.87,8.06,43.87s-95.22-87.29-141.84-99.19H748l-40.67,238.06h355.1C1163.65,1047.62,1134.88,927.6,1118,882Z" fill="#4856df"/>
    <path id="Path_708" data-name="Path 708" d="M1021.71,654.49a12.87,12.87,0,0,0-14.42-7.63c-17.63,3.94-19,37.32-23.18,56.56-6.94,31.75-21.82,43.65-22.81,64.48-1,20,30.75,27.77,30.75,27.77q1.62,15.71,3.29,29.17l88.38-26.42C1059.48,741.28,1030.77,675.27,1021.71,654.49Z" fill="#a15842"/>
    <path id="Path_709" data-name="Path 709" d="M1000.81,864.65v.23l10.14-3.2Z" fill="#a15842"/>
    <path id="Path_710" data-name="Path 710" d="M1099.46,835.84c-.26-.61-.51-1.23-.77-1.85L1011,861.68Z" fill="#3ec1f3"/>
    <path id="Path_711" data-name="Path 711" d="M1098.69,834c-4.61-11.06-9.69-23.11-15-35.57l-88.38,26.42c1.89,15.44,3.76,28.69,5.47,39.81l10.18-3Z" fill="#3ec1f3"/>
    <path id="Path_712" data-name="Path 712" d="M830.74,809.25c31.7,33.25,195.62,201.8,246.61,184.8,37.23-12.41-17.59-134.68-22.81-150.77" fill="none" stroke="#3ec1f3" stroke-linecap="round" stroke-linejoin="round" stroke-width="4"/>
    <path id="Path_713" data-name="Path 713" d="M1052,944.6c-11.49-10.3-32-28.67-42.9-38.37" fill="none" stroke="#30242a" stroke-linecap="round" stroke-linejoin="round" stroke-width="4"/>
    <line id="Line_154" data-name="Line 154" x2="1.94" y2="20.73" transform="translate(988.08 772.86)" fill="none" stroke="#30242a" stroke-linecap="round" stroke-linejoin="round" stroke-width="4"/>
    <line id="Line_155" data-name="Line 155" x2="3.76" y2="10.54" transform="translate(1013 648.62)" fill="none" stroke="#30242a" stroke-linecap="round" stroke-linejoin="round" stroke-width="4"/>
    <line id="Line_156" data-name="Line 156" x2="6.08" y2="14.95" transform="translate(1004 649.62)" fill="none" stroke="#30242a" stroke-linecap="round" stroke-linejoin="round" stroke-width="4"/>
    <path id="Path_714" data-name="Path 714" d="M773.53,941.84l-.56-.17,20.69-132.31H748S565.53,879,523.87,945.45c-39.38,62.81,32.73,102.17,53.56,102.17H759.1Z" fill="#4856df"/>
    <path id="Path_715" data-name="Path 715" d="M965.26,1047.62c23.81,0,15.88-26.79-1-35.71s-36.7-17.86-57.53-45.63-45.63-20.83-61.5-1c0,0-12.1-4.35-29.88-10.25l-13.92,92.58Z" fill="#ca7358"/>
    <path id="Path_716" data-name="Path 716" d="M775.27,942.36l-1.74-.52L759.1,1047.62h42.34L815.36,955C803.8,951.21,789.85,946.72,775.27,942.36Z" fill="#3ec1f3"/>
    <line id="Line_157" data-name="Line 157" x2="14.65" y2="8.91" transform="translate(954.35 1036.71)" fill="none" stroke="#30242a" stroke-linecap="round" stroke-linejoin="round" stroke-width="4"/>
    <path id="Path_717" data-name="Path 717" d="M675.63,918.67c41.66,7.93,59.68,13,97.37,25" fill="none" stroke="#30242a" stroke-linecap="round" stroke-linejoin="round" stroke-width="4"/>
    <line id="Line_158" data-name="Line 158" x2="8.55" y2="4.95" transform="translate(942.45 1041.67)" fill="none" stroke="#30242a" stroke-linecap="round" stroke-linejoin="round" stroke-width="4"/>
    <line id="Line_159" data-name="Line 159" x2="13.88" y2="5.21" transform="translate(847.23 964.05)" fill="none" stroke="#30242a" stroke-linecap="round" stroke-linejoin="round" stroke-width="4"/>
    <path id="Path_718" data-name="Path 718" d="M1181.87,590.26c2.12-12.52,11.76-62.18,35.35-89.05" fill="none" stroke="#30242a" stroke-linecap="round" stroke-miterlimit="10" stroke-width="4"/>
    <ellipse id="Ellipse_112" data-name="Ellipse 112" cx="40.63" cy="9.14" rx="40.63" ry="9.14" transform="translate(1187.183 543.865) rotate(-23.38)" fill="#30242a"/>
    <ellipse id="Ellipse_113" data-name="Ellipse 113" cx="22.48" cy="7.84" rx="22.48" ry="7.84" transform="matrix(0.6, -0.8, 0.8, 0.6, 1207.752, 423.493)" fill="#30242a"/>
    <path id="Path_719" data-name="Path 719" d="M1274,481.88c-1.45-4.72-10.85-6.24-22.75-4.25,8.71-11.77,12.31-23.26,8-26.89s-15,1.85-25.16,12.4c0-12.06-3.11-21.08-8-21.71-6.24-.81-13.08,12.34-15.28,29.36a76.518,76.518,0,0,0-.54,14.67,18.12,18.12,0,0,1,23.42,19.34,77,77,0,0,0,13.92-2.93C1264,496.85,1275.82,487.9,1274,481.88Z" fill="#ffbe21"/>
    <path id="Path_720" data-name="Path 720" d="M1227.35,488.9a18.09,18.09,0,0,0-17.1-3.44c.53,8.11,2.54,14.33,5.61,16.65,2.85,2.69,9.51,3.62,17.81,2.69a18.13,18.13,0,0,0-6.32-15.9Z" fill="#30242a"/>
    <path id="Path_721" data-name="Path 721" d="M1175.33,588.67c-.69-14.22-4.82-84-20.3-125.21" fill="none" stroke="#30242a" stroke-linecap="round" stroke-miterlimit="10" stroke-width="4"/>
    <ellipse id="Ellipse_114" data-name="Ellipse 114" cx="49.03" cy="8.66" rx="49.03" ry="8.66" transform="translate(1072.874 540.813) rotate(-10.79)" fill="#30242a"/>
    <path id="Path_722" data-name="Path 722" d="M1166.38,404.12c-4.82-1.06-10.75,6.4-14.86,17.74-6-13.36-14.24-22.13-19.5-20.17s-5.77,14-1.54,28c-10.53-5.88-19.89-7.63-22.84-3.67-3.77,5,4.33,17.45,18.09,27.72a77.126,77.126,0,0,0,12.52,7.67,18.12,18.12,0,0,1,28.34-10.93,77.925,77.925,0,0,0,4.27-13.57C1174.53,420.15,1172.53,405.47,1166.38,404.12Z" fill="#ffbe21"/>
    <path id="Path_723" data-name="Path 723" d="M1149.64,448.2a18.08,18.08,0,0,0-11.39,13.22c7.33,3.51,13.73,4.81,17.26,3.28,3.74-1.18,7.82-6.53,11.08-14.21a18.11,18.11,0,0,0-16.95-2.29Z" fill="#30242a"/>
    <path id="Path_724" data-name="Path 724" d="M1103.49,478.44v.06a18.125,18.125,0,0,1-15.01,32.85v.07c22.38,10.23,43.89,11.13,48,2S1125.87,488.66,1103.49,478.44Z" fill="#ffbe21"/>
    <path id="Path_725" data-name="Path 725" d="M1105.29,508.87a8.8,8.8,0,0,1,7.33-15.94,18.16,18.16,0,0,0-9.16-14.43l-15,32.85a18.1,18.1,0,0,0,16.83-2.48Z" fill="#f5ebdd"/>
    <path id="Path_726" data-name="Path 726" d="M1101.59,497.54a8.8,8.8,0,0,0,3.7,11.33,18.09,18.09,0,0,0,7.33-15.94A8.81,8.81,0,0,0,1101.59,497.54Z" fill="#30242a"/>
  </g>
</svg>
