<svg xmlns="http://www.w3.org/2000/svg" width="1251.836" height="803.945" viewBox="0 0 1251.836 803.945">
  <g id="Layer_5" data-name="Layer 5" transform="translate(-181.264 -219.33)">
    <path id="Path_576" data-name="Path 576" d="M392.52,1021.78h0a10.51,10.51,0,0,1-9.86-14.15l25.78-69.85h41l-47.93,79a10.52,10.52,0,0,1-8.99,5Z"/>
    <path id="Path_577" data-name="Path 577" d="M757.48,1021.78h0a10.51,10.51,0,0,0,9.86-14.15l-25.78-69.85h-41l47.93,79a10.52,10.52,0,0,0,8.99,5Z"/>
    <rect id="Rectangle_161" data-name="Rectangle 161" width="446" height="233" transform="translate(352 730.23)" fill="#ca7358"/>
    <rect id="Rectangle_162" data-name="Rectangle 162" width="386" height="173" transform="translate(382 760.23)" fill="#ffbe21"/>
    <line id="Line_97" data-name="Line 97" x1="386.5" transform="translate(382 847)" fill="none" stroke="#ca7358" stroke-miterlimit="10" stroke-width="4"/>
    <circle id="Ellipse_96" data-name="Ellipse 96" cx="11" cy="11" r="11" transform="translate(564 794.5)" fill="#30242a"/>
    <circle id="Ellipse_97" data-name="Ellipse 97" cx="11" cy="11" r="11" transform="translate(564 878.5)" fill="#30242a"/>
    <circle id="Ellipse_98" data-name="Ellipse 98" cx="14.5" cy="14.5" r="14.5" transform="translate(476 602.5)" fill="#ffbe21"/>
    <circle id="Ellipse_99" data-name="Ellipse 99" cx="14.5" cy="14.5" r="14.5" transform="translate(551 602.5)" fill="#ffbe21"/>
    <path id="Path_578" data-name="Path 578" d="M528,602.5a12.889,12.889,0,0,0-5.619,1.29A14.53,14.53,0,1,0,516,620.41a13,13,0,1,0,12-17.91Z" fill="#ffbe21"/>
    <path id="Path_579" data-name="Path 579" d="M553.93,602.54a14.5,14.5,0,1,0-13.43,20,15.105,15.105,0,0,0,1.51-.08,13,13,0,1,0,11.92-19.88Z" fill="#ffbe21"/>
    <circle id="Ellipse_100" data-name="Ellipse 100" cx="11" cy="11" r="11" transform="translate(512 586.5)" fill="#ffbe21"/>
    <circle id="Ellipse_101" data-name="Ellipse 101" cx="7.5" cy="7.5" r="7.5" transform="translate(552 567.5)" fill="#ffbe21"/>
    <path id="Path_580" data-name="Path 580" d="M468.33,616.5l20,114H502.5l-15.83-114Z" fill="#ff7235"/>
    <path id="Path_581" data-name="Path 581" d="M569,616.5l-15.84,114h14.17l20-114Z" fill="#ff7235"/>
    <path id="Path_582" data-name="Path 582" d="M544,616.5l-7.48,114h16.64L569,616.5Z" fill="#f5ebdd"/>
    <path id="Path_583" data-name="Path 583" d="M486.67,616.5l15.83,114h16.64l-7.47-114Z" fill="#f5ebdd"/>
    <path id="Path_584" data-name="Path 584" d="M511.67,616.5l7.47,114h17.38l7.48-114Z" fill="#ff7235"/>
    <path id="Path_585" data-name="Path 585" d="M705.89,652.84H893v368.95H625V733.72a80.888,80.888,0,0,1,80.88-80.88Z" fill="#ffb7d5"/>
    <path id="Path_586" data-name="Path 586" d="M912.89,452.78h264.23A80.888,80.888,0,0,1,1258,533.66v488.12H832V533.67a80.89,80.89,0,0,1,80.89-80.89Z" fill="#ffb7d5"/>
    <path id="Path_587" data-name="Path 587" d="M817.89,751.36h359.23A80.888,80.888,0,0,1,1258,832.23v189.55H737V832.24a80.888,80.888,0,0,1,80.88-80.88Z" fill="#ffb7d5"/>
    <line id="Line_98" data-name="Line 98" x1="218.14" transform="translate(770.36 841.15)" fill="none" stroke="#ca7358" stroke-miterlimit="10" stroke-width="4"/>
    <line id="Line_99" data-name="Line 99" y2="189.54" transform="translate(737 832.24)" fill="none" stroke="#ca7358" stroke-miterlimit="10" stroke-width="4"/>
    <line id="Line_100" data-name="Line 100" x1="169.14" transform="translate(1088.86 651.65)" fill="none" stroke="#ca7358" stroke-miterlimit="10" stroke-width="4"/>
    <rect id="Rectangle_163" data-name="Rectangle 163" width="446" height="302" transform="translate(354 219.33)" fill="#f5ebdd"/>
    <rect id="Rectangle_164" data-name="Rectangle 164" width="386" height="242" transform="translate(384 249.33)" fill="#30242a"/>
    <g id="layer1">
      <g id="g3235">
        <path id="path3015" d="M664.34,399.57c3.44.33,6.87.69,10.3,1.06l7.58-18.69,7.19,20.42q5.55.69,11.07,1.45L687.86,368l12.62-31.17H689.79l-.11.15-6.82,16.84-6-17H666.32l10.9,30.92Z" fill="#ff7235"/>
        <path id="path3019" d="M656.35,398.84v-62H645.8V398q5.28.4,10.55.87" fill="#ff7235"/>
        <path id="path3023" d="M577.09,395.37q4.27,0,8.54.05V372.63H598.3v-9.7H585.63V346.54h14.59v-9.71H575v58.55h2.06" fill="#ff7235"/>
        <path id="path3035" d="M544.33,396c3.52-.12,7-.23,10.56-.31V346.54h9.86v-9.71H534.47v9.71h9.86V396Z" fill="#ff7235"/>
        <path id="path3039" d="M463.64,402.5V365.56L476.13,401q5.76-.64,11.55-1.22v-63H477.56V375.1l-13.49-38.27H453.52v67h.06c3.34-.46,6.7-.9,10.06-1.33" fill="#ff7235"/>
        <path id="path3051" d="M524.3,346.54v-9.71H499.1v61.9h0q12.54-1.08,25.18-1.82h0V387.2q-7.31.42-14.58,1V372.64h12.67v-9.71H509.7V346.54Z" fill="#ff7235"/>
        <path id="path3055" d="M621.14,386.74V336.83h-10.6V396h0q12.65.47,25.19,1.28h0v-9.71q-7.28-.48-14.59-.82" fill="#ff7235"/>
      </g>
    </g>
    <path id="Path_588" data-name="Path 588" d="M933,604.5s-94,21-142,48c-49.36,27.76-54,66.72-84.81,160.29-13.52,41-20.31,70.44-27.58,90.6L762.5,943c4-7.42,7.56-14.72,10.5-21.5,0,0,38.46-1.71,42.13-53.18,2.74-38.45,4.06-66.91,17.48-95.63l229.3-168.63Z" fill="#30242a"/>
    <path id="Path_589" data-name="Path 589" d="M644.2,939.38c-.42.07-.84.15-1.27.21-29.71,4.51-42.11,10.29-47,23.76l124,57.8a6.73,6.73,0,0,0,8.29-2.14h0a6.72,6.72,0,0,0-1.54-9.44L645,972.5a84.29,84.29,0,0,0-.8-33.12Z" fill="#30242a"/>
    <path id="Path_590" data-name="Path 590" d="M762.5,943l-83.89-39.61c-4.29,11.9-8.75,20.58-14.86,26.53-5.08,5-11.32,8-19.55,9.46a84.29,84.29,0,0,1,.8,33.12l81.72,37.07a6.677,6.677,0,0,0-1-.59l-3-1.43c4.86-7,12.49-18.42,20.65-31.62C749.85,965.58,756.56,954.16,762.5,943Z" fill="#eaa58b"/>
    <line id="Line_101" data-name="Line 101" x1="87.31" y1="40.92" transform="translate(685 882)" fill="none" stroke="#f5ebdd" stroke-linecap="round" stroke-linejoin="round" stroke-width="4"/>
    <path id="Path_591" data-name="Path 591" d="M1109.5,644.91l-3.5-38.54h-69s-116,27.76-165.31,51.41c-49.08,23.52-43.19,78.15-33.94,173.78,4.72,48.75,10.61,82.23,10.3,105.94h91q.75-11.54,1-24.35s35.5-16.81,17-71.31c-12.39-36.5-23.09-60.67-23.09-92.37H1014a95.88,95.88,0,0,0,95.5-104.56Z" fill="#30242a"/>
    <path id="Path_592" data-name="Path 592" d="M826.44,982c-23.12,15.72-31.28,26-30,39.75l136.91-.18a5.69,5.69,0,0,0,0-11.37H842S837,993.32,826.44,982Z" fill="#30242a"/>
    <path id="Path_593" data-name="Path 593" d="M848.05,937.5c-.17,13.5-2.35,23.84-7.91,32a40.171,40.171,0,0,1-11.24,10.87L826.44,982c10.57,11.29,15.56,28.2,15.56,28.2h86.48A360.747,360.747,0,0,0,936,969.5c1.24-9.56,2.32-20.27,3.08-32Z" fill="#eaa58b"/>
    <path id="Path_594" data-name="Path 594" d="M935,633.5c-22.1,7.06-48.18,15.7-65,24-38.41,18.93-43.31,55.84-39.14,117.3" fill="none" stroke="#a15842" stroke-linecap="round" stroke-linejoin="round" stroke-width="4"/>
    <line id="Line_102" data-name="Line 102" x1="24.81" transform="translate(908.19 751.84)" fill="none" stroke="#a15842" stroke-linecap="round" stroke-linejoin="round" stroke-width="4"/>
    <line id="Line_103" data-name="Line 103" x1="93" transform="translate(847 914.84)" fill="none" stroke="#f5ebdd" stroke-linecap="round" stroke-miterlimit="10" stroke-width="4"/>
    <path id="Path_595" data-name="Path 595" d="M1070.89,652.84H1258v368.95H990V733.72a80.888,80.888,0,0,1,80.88-80.88Z" fill="#ffb7d5"/>
    <line id="Line_104" data-name="Line 104" y2="271.08" transform="translate(988 749.51)" fill="none" stroke="#ca7358" stroke-miterlimit="10" stroke-width="4"/>
    <path id="Path_596" data-name="Path 596" d="M747,489.5a8.543,8.543,0,0,0-1.41-.8l1.39.95Z" fill="none"/>
    <path id="Path_597" data-name="Path 597" d="M284.5,876.5c-23,0-41.76-13.79-42.47-31h0v176h85v-176h0C326.26,862.71,307.53,876.5,284.5,876.5Z" fill="#4756df"/>
    <path id="Path_598" data-name="Path 598" d="M243.61,981.67c27.9-3,61.13-22.5,54.89-68.67-5-37-41.5-26.5-20.5,8.5,12.34,20.57,32.63,34.58,47.26,42.63" fill="none" stroke="#3ec1f3" stroke-linecap="round" stroke-miterlimit="10" stroke-width="4"/>
    <path id="Path_599" data-name="Path 599" d="M243.36,940.07c16.63,11.38,46.09,37.52,57.32,79.65" fill="none" stroke="#3ec1f3" stroke-linecap="round" stroke-miterlimit="10" stroke-width="4"/>
    <path id="Path_600" data-name="Path 600" d="M243.26,996.37c10.91,3.23,24.9,10.19,35.43,23.47" fill="none" stroke="#3ec1f3" stroke-linecap="round" stroke-miterlimit="10" stroke-width="4"/>
    <path id="Path_601" data-name="Path 601" d="M273.72,854.66a72.35,72.35,0,0,1-30.35,28.67" fill="none" stroke="#3ec1f3" stroke-linecap="round" stroke-miterlimit="10" stroke-width="4"/>
    <path id="Path_602" data-name="Path 602" d="M284.5,876.5c23,0,41.76-13.79,42.47-31H242C242.74,862.71,261.47,876.5,284.5,876.5Z" fill="#30242a"/>
    <line id="Line_105" data-name="Line 105" x2="23" y2="173" transform="translate(260.5 691)" fill="none" stroke="#30242a" stroke-linecap="round" stroke-miterlimit="10" stroke-width="4"/>
    <line id="Line_106" data-name="Line 106" x2="26.9" y2="101.83" transform="translate(253.14 760.72)" fill="none" stroke="#30242a" stroke-linecap="round" stroke-miterlimit="10" stroke-width="4"/>
    <ellipse id="Ellipse_102" data-name="Ellipse 102" cx="37.72" cy="10.42" rx="37.72" ry="10.42" transform="translate(293.71 797.017) rotate(-23.15)" fill="#30242a"/>
    <ellipse id="Ellipse_103" data-name="Ellipse 103" cx="10.01" cy="45.09" rx="10.01" ry="45.09" transform="translate(181.263 800.71) rotate(-69.34)" fill="#30242a"/>
    <ellipse id="Ellipse_104" data-name="Ellipse 104" cx="30.57" cy="7.75" rx="30.57" ry="7.75" transform="translate(267.246 774.045) rotate(-36.99)" fill="#30242a"/>
    <line id="Line_107" data-name="Line 107" x1="26" y2="160" transform="translate(287.5 712)" fill="none" stroke="#30242a" stroke-linecap="round" stroke-miterlimit="10" stroke-width="4"/>
    <path id="Path_603" data-name="Path 603" d="M270.65,728.58a29,29,0,1,0-34.47,42.33,54,54,0,0,1,34.47-42.33Z" fill="#ffb7d5"/>
    <path id="Path_604" data-name="Path 604" d="M257.39,746.56a54.26,54.26,0,0,0-26.67-27.34" fill="none" stroke="#f5ebdd" stroke-linecap="round" stroke-miterlimit="10" stroke-width="4"/>
    <path id="Path_605" data-name="Path 605" d="M253,750.93a53.77,53.77,0,0,0-34.69-16.35" fill="none" stroke="#f5ebdd" stroke-linecap="round" stroke-miterlimit="10" stroke-width="4"/>
    <path id="Path_606" data-name="Path 606" d="M236.18,770.91a29,29,0,0,0,34.47-42.33,54,54,0,0,0-34.47,42.33Z" fill="#ff7235"/>
    <path id="Path_607" data-name="Path 607" d="M227.82,672.2a29,29,0,1,1,51.78,17.31,54,54,0,0,0-51.78-17.31Z" fill="#ffb7d5"/>
    <path id="Path_608" data-name="Path 608" d="M248.65,680.29a54.2,54.2,0,0,1,7.9-37.37" fill="none" stroke="#f5ebdd" stroke-linecap="round" stroke-miterlimit="10" stroke-width="4"/>
    <path id="Path_609" data-name="Path 609" d="M254.68,681.63a53.82,53.82,0,0,1,20.56-32.37" fill="none" stroke="#f5ebdd" stroke-linecap="round" stroke-miterlimit="10" stroke-width="4"/>
    <path id="Path_610" data-name="Path 610" d="M279.6,689.51a29,29,0,0,1-51.78-17.31,54,54,0,0,1,51.78,17.31Z" fill="#ff7235"/>
    <path id="Path_611" data-name="Path 611" d="M297.44,674.23a29,29,0,1,1,29.18,46.13A54,54,0,0,0,297.44,674.23Z" fill="#ffb7d5"/>
    <path id="Path_612" data-name="Path 612" d="M308.47,693.66a54.23,54.23,0,0,1,29.73-24" fill="none" stroke="#f5ebdd" stroke-linecap="round" stroke-miterlimit="10" stroke-width="4"/>
    <path id="Path_613" data-name="Path 613" d="M312.29,698.52a53.78,53.78,0,0,1,36.39-12.1" fill="none" stroke="#f5ebdd" stroke-linecap="round" stroke-miterlimit="10" stroke-width="4"/>
    <path id="Path_614" data-name="Path 614" d="M326.62,720.36a29,29,0,0,1-29.18-46.13,54,54,0,0,1,29.18,46.13Z" fill="#ff7235"/>
    <path id="Path_615" data-name="Path 615" d="M1432.87,1018.54a4.115,4.115,0,0,1-.34.7,3.765,3.765,0,0,0,.34-.7Z" fill="#ca7358"/>
    <path id="Path_616" data-name="Path 616" d="M1385.21,996.51l-26.21,25h67c3.53,0,5.59-.82,6.51-2.23C1427.35,1020.24,1397.43,1003.51,1385.21,996.51Z" fill="#ca7358"/>
    <path id="Path_617" data-name="Path 617" d="M1432.53,1019.24Z" fill="#ffb7d5"/>
    <path id="Path_618" data-name="Path 618" d="M1432.87,1018.54c3.34-9.41-30.87-38-30.87-38l-16.79,16c12.22,7,42.14,23.73,47.3,22.76h0a4.109,4.109,0,0,0,.36-.76Z" fill="#ffb7d5"/>
    <path id="Path_619" data-name="Path 619" d="M1428,928.5c-1,5-47,13-47,13l-2.88-19.08-1.12.08,7.46,57S1431,938.5,1428,928.5Z" fill="#ca7358"/>
    <path id="Path_620" data-name="Path 620" d="M1428,928.5c-2.6-8.66-42.64-6.53-49.88-6.08L1381,941.5S1427,933.5,1428,928.5Z" fill="#ffb7d5"/>
    <line id="Line_108" data-name="Line 108" y1="36.01" x2="1.73" transform="translate(1372.69 891.93)" fill="none" stroke="#30242a" stroke-linecap="round" stroke-linejoin="round" stroke-width="4"/>
    <line id="Line_109" data-name="Line 109" x1="9.35" y1="45.93" transform="translate(1356.31 878.07)" fill="none" stroke="#30242a" stroke-linecap="round" stroke-linejoin="round" stroke-width="4"/>
    <path id="Path_621" data-name="Path 621" d="M1213,1021.78l-46.78-62.33,21.78-23c-2-7-11-38-23-48s-23-10-29-8l-.18.06a8.67,8.67,0,0,0-2,15.21L1145,905.5s-25,19-25,40c0,14.64,7.9,22.14,15.73,26l-20.73,29s-21,3-62-9c-12.49-3.66-26-10-38.62-15.82,0,13.62-6.26,24.53-15.53,32.56,21.26,8.38,48.32,13.54,69.32,13.54Z" fill="#a15842"/>
    <path id="Path_622" data-name="Path 622" d="M1087,1000c3.48,6.71,7.75,13.59,15.28,19.68" fill="none" stroke="#30242a" stroke-linecap="round" stroke-miterlimit="10" stroke-width="4"/>
    <line id="Line_110" data-name="Line 110" x1="8" y2="6" transform="translate(1177 933)" fill="none" stroke="#30242a" stroke-linecap="round" stroke-miterlimit="10" stroke-width="4"/>
    <path id="Path_623" data-name="Path 623" d="M1014.38,975.68c-21-9.63-39.5-17.54-46.38-8.18-11.75,16,5.37,30.68,30.85,40.74C1008.12,1000.21,1014.43,989.3,1014.38,975.68Z" fill="#f5ebdd"/>
    <path id="Path_624" data-name="Path 624" d="M1396,955.47c0-4.24,5.34-9.8,9.54-11.51-7.83-21.46-39.2-40.12-71.54-23.46,0,0-4-20-15-28-10.29-7.49-21-8.23-29-5.23l-.24.09a9.17,9.17,0,0,0-2.76,15.3l14,12.84-7,13.77a70.64,70.64,0,0,0-24.62-14.51c-.79,37.41-49.91,53.89-74.38,45.74-8.6-12-15.71-18.16-17.53-19.63l-.47.4s-21-13.77-40,.23c0,0-10-23-22-32.23-10.15-7.81-30-8-35-3l-.15.15a11,11,0,0,0,2.09,17.06l14.06,8.79s-36,54,12,89.51h255c38.28,0,47.26-30.71,46.4-55.34C1404.87,965.26,1396,962.09,1396,955.47Z" fill="#ca7358"/>
    <path id="Path_625" data-name="Path 625" d="M1195,960.5c24.47,8.15,73.59-8.33,74.38-45.74a69.621,69.621,0,0,0-31.38-3.49c-29,3.41-56.7,26.32-60.53,29.6C1179.29,942.34,1186.4,948.45,1195,960.5Z" fill="#f5ebdd"/>
    <path id="Path_626" data-name="Path 626" d="M1396,955.47c0,6.62,8.87,9.79,13.4,11a81.367,81.367,0,0,0-3.4-21.17c-.14-.44-.31-.87-.46-1.31C1401.34,945.67,1396,951.23,1396,955.47Z" fill="#30242a"/>
    <line id="Line_111" data-name="Line 111" y1="2.1" x2="14.22" transform="translate(1387.97 955.76)" fill="none" stroke="#30242a" stroke-linecap="round" stroke-linejoin="round" stroke-width="4"/>
    <path id="Path_627" data-name="Path 627" d="M1336.54,921c4.07,16.4,9.08,39.32,11,54" fill="none" stroke="#30242a" stroke-linecap="round" stroke-linejoin="round" stroke-width="4"/>
    <line id="Line_112" data-name="Line 112" x1="3.72" y2="5.57" transform="translate(1288.78 897)" fill="none" stroke="#30242a" stroke-linecap="round" stroke-linejoin="round" stroke-width="4"/>
    <line id="Line_113" data-name="Line 113" x1="3.92" y2="5.87" transform="translate(1295.58 903)" fill="none" stroke="#30242a" stroke-linecap="round" stroke-linejoin="round" stroke-width="4"/>
    <line id="Line_114" data-name="Line 114" x1="3.76" y2="5.64" transform="translate(1080.74 915)" fill="none" stroke="#30242a" stroke-linecap="round" stroke-linejoin="round" stroke-width="4"/>
    <line id="Line_115" data-name="Line 115" x1="4.06" y2="6.08" transform="translate(1088.44 920)" fill="none" stroke="#30242a" stroke-linecap="round" stroke-linejoin="round" stroke-width="4"/>
    <path id="Path_628" data-name="Path 628" d="M1292.48,928.65c-18.19,33.24-33.21,68.49-4.77,91.81" fill="none" stroke="#30242a" stroke-linecap="round" stroke-linejoin="round" stroke-width="4"/>
    <path id="Path_629" data-name="Path 629" d="M1205,984c-4-18-16.31-40.46-32-47-12-5-24-4-35,2,0,0-4.75-10.19-8.57-15.77" fill="none" stroke="#30242a" stroke-linecap="round" stroke-miterlimit="10" stroke-width="4"/>
    <path id="Path_630" data-name="Path 630" d="M1380.37,946.23s3,9.36,7.6,11.63c0,0-3.26,4.67-3.8,13.71" fill="none" stroke="#30242a" stroke-linecap="round" stroke-linejoin="round" stroke-width="4"/>
    <path id="Path_631" data-name="Path 631" d="M1255,911.5s-8,14-21,13-12-20,3-31a29.25,29.25,0,0,1,21-3.38c12.78,2.79,20.26,28.53,20.26,28.53S1265,912.5,1255,911.5Z" fill="#ca7358"/>
    <path id="Path_632" data-name="Path 632" d="M1368,831.96l16.46-10.06-7.32,25.6L1396.5,836" fill="none" stroke="#ffb7d5" stroke-linecap="round" stroke-linejoin="round" stroke-width="4"/>
    <path id="Path_633" data-name="Path 633" d="M1403.96,790.43l17.33-1.38-16.32,17.61,19.53-1.36" fill="none" stroke="#ffb7d5" stroke-linecap="round" stroke-linejoin="round" stroke-width="4"/>
    <line id="Line_116" data-name="Line 116" x1="0.02" y2="7.58" transform="translate(1232.43 914.92)" fill="none" stroke="#30242a" stroke-linecap="round" stroke-linejoin="round" stroke-width="4"/>
    <line id="Line_117" data-name="Line 117" x1="0.02" y2="7.51" transform="translate(1241.58 914.05)" fill="none" stroke="#30242a" stroke-linecap="round" stroke-linejoin="round" stroke-width="4"/>
    <line id="Line_118" data-name="Line 118" x1="3.62" y2="3.87" transform="translate(1133.5 890.29)" fill="none" stroke="#30242a" stroke-linecap="round" stroke-linejoin="round" stroke-width="4"/>
    <line id="Line_119" data-name="Line 119" x1="4.31" y2="4.61" transform="translate(1139.89 895.53)" fill="none" stroke="#30242a" stroke-linecap="round" stroke-linejoin="round" stroke-width="4"/>
    <path id="Path_634" data-name="Path 634" d="M779.3,511.94,747,489.65l-1.39-1c-8.55-4-31.76-2.85-30.59-12.19.25-2,2.6-3.51,6.31-4.55L674.39,439.6a8,8,0,0,0-11.07,2l-5,7.19a13.49,13.49,0,0,1-15.22,22.07l-5.72,8.29a8,8,0,0,0,2,11.08l104.9,72.34a8,8,0,0,0,11.08-2l9.14-13.25L781.34,523a8,8,0,0,0-2.04-11.06ZM718.5,530.5A21.5,21.5,0,1,1,740,509,21.5,21.5,0,0,1,718.5,530.5Zm47.5-3.63-12.5,18a3.61,3.61,0,0,1-5,.9h0a3.6,3.6,0,0,1-.91-5l12.51-18a3.6,3.6,0,0,1,5.92,4.11Z" fill="#4756df"/>
    <circle id="Ellipse_105" data-name="Ellipse 105" cx="21.5" cy="21.5" r="21.5" transform="translate(697 487.5)" fill="#3ec1f3"/>
    <path id="Path_635" data-name="Path 635" d="M663,459a13.45,13.45,0,0,0-4.64-10.17L643.14,470.9a13.36,13.36,0,0,0,6.36,1.6A13.5,13.5,0,0,0,663,459Z" fill="#3ec1f3"/>
    <path id="Path_636" data-name="Path 636" d="M765.07,521.85a3.61,3.61,0,0,0-5,.91l-12.51,18a3.6,3.6,0,0,0,.91,5h0a3.61,3.61,0,0,0,5-.9l12.5-18A3.6,3.6,0,0,0,765.07,521.85Z" fill="#30242a"/>
    <path id="Path_637" data-name="Path 637" d="M730,552.5s-9,10-18,1c0,0-11,3-15-6,0,0-9,4-13-5-.26-.58-5.2,2.16-10-4-7-9-11-34-5-35,10.3-1.72,14.66,17.6,14.84,17,2.25-7.61,6.15-14,10.16-14,7,0,8,7,8,7s4.23-5.65,10-4c7,2,5,11,5,11s6.42-4.26,10,2c4,7-4,16-3,26Z" fill="#eaa58b"/>
    <path id="Path_638" data-name="Path 638" d="M716.42,518.94c-4.27,7.46-11,21.92-6.76,33.1" fill="none" stroke="#a15842" stroke-linecap="round" stroke-linejoin="round" stroke-width="4"/>
    <path id="Path_639" data-name="Path 639" d="M701.17,512c-2.71,6.4-8.39,21.92-5.94,34.43" fill="none" stroke="#a15842" stroke-linecap="round" stroke-linejoin="round" stroke-width="4"/>
    <path id="Path_640" data-name="Path 640" d="M682.73,518c-1.32,6.4-2.29,14.93-.59,22.72" fill="none" stroke="#a15842" stroke-linecap="round" stroke-linejoin="round" stroke-width="4"/>
    <path id="Path_641" data-name="Path 641" d="M1060,369.5c12-4,26-21,16-35-13.25-18.56-36,6-36,6a59.771,59.771,0,0,1-21-28c-3,1-12,2-19,0h0s-3,8-5,22c-.27,1.92-.59,3.77-.94,5.55,0,0-9.06-.55-10.06,3.45-1.24,4.94,6.69,10.25,6.69,10.25-3.1,11.17-5.68,19.76-1.69,29.75,3.52,8.81,11,19,35,16l-1.37,10.5h71.57c.4-4.19.87-9.18,1.37-14.57C1087.45,392.7,1067.13,384.56,1060,369.5Z" fill="#eaa58b"/>
    <path id="Path_642" data-name="Path 642" d="M1068,279.5c-29-13-56,7-56,7s-24.66-7.1-26,9c-1,12,14,17,14,17h0c7,2,16,1,19,0a59.771,59.771,0,0,0,21,28s22.75-24.56,36-6c10,14-4,31-16,35,7.13,15.06,27.45,23.2,35.57,25.93,1.76-19.07,3.87-43.22,4.43-54.93C1100.91,321.41,1099,293.41,1068,279.5Z" fill="#4756df"/>
    <path id="Path_643" data-name="Path 643" d="M869,499.5s-70-20-97-26c-16.42-3.65-39.64-4.64-50.69-1.55-3.71,1-6.06,2.54-6.31,4.55-1.17,9.34,22,8.18,30.59,12.19l33.71,23.25a8,8,0,0,1,2,11.08l-16.76,24.3A254.742,254.742,0,0,0,847,573.5c26.53,3.67,58.73-11.09,81.78-24.67L890.11,485C877.68,493.48,869,499.5,869,499.5Z" fill="#eaa58b"/>
    <path id="Path_644" data-name="Path 644" d="M1094.2,410h-71.57L1021,422.5s-35.15-.74-60,15c-18.78,11.89-50.08,33.18-70.89,47.45l38.67,63.88A293.477,293.477,0,0,0,959,528.5l-26,76h173l-13-182S1093.49,417.55,1094.2,410Z" fill="#ff7235"/>
    <line id="Line_120" data-name="Line 120" x1="1.5" y2="12" transform="translate(1017.5 425)" fill="none" stroke="#a15842" stroke-linecap="round" stroke-linejoin="round" stroke-width="4"/>
    <line id="Line_121" data-name="Line 121" x1="13.5" y2="40" transform="translate(958 487)" fill="none" stroke="#a15842" stroke-linecap="round" stroke-linejoin="round" stroke-width="4"/>
    <path id="Path_645" data-name="Path 645" d="M998.85,363c1.65,1,7.85,1.83,10.36-2.94" fill="none" stroke="#a15842" stroke-linecap="round" stroke-linejoin="round" stroke-width="4"/>
    <circle id="Ellipse_106" data-name="Ellipse 106" cx="3" cy="3" r="3" transform="translate(1008 333.5)"/>
    <line id="Line_122" data-name="Line 122" x1="11" y2="7" transform="translate(1052 346.5)" fill="none" stroke="#a15842" stroke-linecap="round" stroke-linejoin="round" stroke-width="4"/>
    <line id="Line_123" data-name="Line 123" x1="1.61" y2="12.97" transform="translate(1034.25 411.98)" fill="none" stroke="#a15842" stroke-linecap="round" stroke-linejoin="round" stroke-width="4"/>
    <line id="Line_124" data-name="Line 124" x1="1.6" y2="12.97" transform="translate(1049.25 411.98)" fill="none" stroke="#a15842" stroke-linecap="round" stroke-linejoin="round" stroke-width="4"/>
    <line id="Line_125" data-name="Line 125" x1="1.6" y2="12.97" transform="translate(1064.24 411.98)" fill="none" stroke="#a15842" stroke-linecap="round" stroke-linejoin="round" stroke-width="4"/>
    <path id="Path_646" data-name="Path 646" d="M1024.73,401.26c4.77-.84,11.41-2.59,16.77-6.26" fill="none" stroke="#a15842" stroke-linecap="round" stroke-linejoin="round" stroke-width="4"/>
    <path id="Path_647" data-name="Path 647" d="M1099.22,551.5l1.78,37s-84.29,23.62-113.08,45.22c-13,9.75-29,28.09-34.92,35.78s-30.28,43-20,44,26.13-21.17,26.13-21.17S949,719.5,952,728.5s12.3,2.79,12.3,2.79c8.7,10.21,16.42-1.06,16.42-1.06,15.28,11.27,30.82-44.1,30.82-44.1a70.79,70.79,0,0,0,22.14-16.94s85.62,3.39,119.32-24.69c16.87-14.06,25.2-51.52,25.53-93Z" fill="#eaa58b"/>
    <path id="Path_648" data-name="Path 648" d="M1165,456.5c-7.41-22.59-32-34-47-34h-25l6.22,129h79.31C1178.78,519.22,1174.19,484.51,1165,456.5Z" fill="#ff7235"/>
    <line id="Line_126" data-name="Line 126" x1="2.93" y1="61.6" transform="translate(1098.5 489)" fill="none" stroke="#a15842" stroke-linecap="round" stroke-linejoin="round" stroke-width="4"/>
    <line id="Line_127" data-name="Line 127" y1="3.95" x2="14.91" transform="translate(1102.59 582)" fill="none" stroke="#a15842" stroke-linecap="round" stroke-linejoin="round" stroke-width="4"/>
    <path id="Path_649" data-name="Path 649" d="M956.78,694.06c3.14-8.4,7.93-20.85,11.72-29.06" fill="none" stroke="#a15842" stroke-linecap="round" stroke-linejoin="round" stroke-width="4"/>
    <path id="Path_650" data-name="Path 650" d="M982.5,672c-10.72,23.09-17,49-19,58.36" fill="none" stroke="#a15842" stroke-linecap="round" stroke-linejoin="round" stroke-width="4"/>
    <path id="Path_651" data-name="Path 651" d="M997.5,680c-6.86,15.79-13.19,36.84-16.63,49.1" fill="none" stroke="#a15842" stroke-linecap="round" stroke-linejoin="round" stroke-width="4"/>
  </g>
</svg>
