<svg xmlns="http://www.w3.org/2000/svg" width="1134.314" height="818.75" viewBox="0 0 1134.314 818.75">
  <g id="wfh_9" transform="translate(-228.77 -200.25)">
    <rect id="Rectangle_200" data-name="Rectangle 200" width="419.28" height="419.28" rx="29.33" transform="translate(247.09 409.56)" fill="#f5ebdd"/>
    <circle id="Ellipse_155" data-name="Ellipse 155" cx="10.12" cy="10.12" r="10.12" transform="translate(577.93 376.78)" fill="#a15842"/>
    <line id="Line_231" data-name="Line 231" y2="31.81" transform="translate(588.05 351.72)" fill="none" stroke="#a15842" stroke-miterlimit="10" stroke-width="4"/>
    <rect id="Rectangle_201" data-name="Rectangle 201" width="15.4" height="133.01" transform="translate(616.26 362.33)" fill="#a15842"/>
    <path id="Path_986" data-name="Path 986" d="M669.8,252.66c-3.08,6.09-16,27.35-45.84,27.35s-42.75-21.26-45.84-27.35L549.27,362.33H698.66Z" fill="#ffbe21"/>
    <line id="Line_232" data-name="Line 232" x2="19.4" y2="107.56" transform="translate(657.35 254.79)" fill="none" stroke="#f5ebdd" stroke-linecap="round" stroke-miterlimit="10" stroke-width="4"/>
    <line id="Line_233" data-name="Line 233" x1="19.15" y2="106.16" transform="translate(571.43 256.19)" fill="none" stroke="#f5ebdd" stroke-linecap="round" stroke-miterlimit="10" stroke-width="4"/>
    <line id="Line_234" data-name="Line 234" x1="7.42" y2="106.81" transform="translate(603.96 255.5)" fill="none" stroke="#f5ebdd" stroke-linecap="round" stroke-miterlimit="10" stroke-width="4"/>
    <line id="Line_235" data-name="Line 235" x2="7.44" y2="107.02" transform="translate(636.54 255.5)" fill="none" stroke="#f5ebdd" stroke-linecap="round" stroke-miterlimit="10" stroke-width="4"/>
    <path id="Path_987" data-name="Path 987" d="M624,280c29.85,0,42.76-21.26,45.84-27.35v-.21H578.18l-.06.21C581.21,258.75,594.12,280,624,280Z" fill="#ff7235"/>
    <rect id="Rectangle_202" data-name="Rectangle 202" width="419.28" height="419.28" rx="29.33" transform="translate(820.58 204.25)" fill="#f5ebdd"/>
    <path id="Path_988" data-name="Path 988" d="M623.47,1016.78h0a11.4,11.4,0,0,1-11.32-10l-8.44-70.91h39.52l-8.44,70.91A11.39,11.39,0,0,1,623.47,1016.78Z" fill="#30242a"/>
    <path id="Path_989" data-name="Path 989" d="M1066.84,1016.78h0a11.38,11.38,0,0,1-11.31-10l-8.44-70.91h39.51l-8.44,70.91A11.39,11.39,0,0,1,1066.84,1016.78Z" fill="#30242a"/>
    <path id="Path_990" data-name="Path 990" d="M391.59,642.81H569v294H310.7V723.69a80.888,80.888,0,0,1,80.88-80.88Z" fill="#ffb7d5"/>
    <path id="Path_991" data-name="Path 991" d="M590.14,495.34h611.24a80.89,80.89,0,0,1,80.89,80.89V936.78h-773V576.22a80.89,80.89,0,0,1,80.89-80.89Z" fill="#ffb7d5"/>
    <line id="Line_236" data-name="Line 236" y2="250.65" transform="translate(509.25 686.13)" fill="none" stroke="#a15842" stroke-linecap="round" stroke-miterlimit="10" stroke-width="4"/>
    <path id="Path_992" data-name="Path 992" d="M590.14,760.4h611.24a80.89,80.89,0,0,1,80.89,80.89v95.5h-773v-95.5A80.89,80.89,0,0,1,590.14,760.4Z" fill="#ffb7d5"/>
    <path id="Path_993" data-name="Path 993" d="M963.84,760.4H587.22a78,78,0,0,0-78,78v98.42" fill="none" stroke="#a15842" stroke-linecap="round" stroke-miterlimit="10" stroke-width="4"/>
    <line id="Line_237" data-name="Line 237" y2="175.15" transform="translate(1022.03 761.63)" fill="none" stroke="#a15842" stroke-miterlimit="10" stroke-width="4"/>
    <line id="Line_238" data-name="Line 238" x1="180.35" transform="translate(1101.92 640.88)" fill="none" stroke="#a15842" stroke-miterlimit="10" stroke-width="4"/>
    <path id="Path_994" data-name="Path 994" d="M455.28,610c23.13,2.89,30.34-6.93,33.73-15.42,3.85-9.63,1.37-17.91-1.63-28.67,0,0,7.64-4.16,6.45-8.93-1-3.85-9.69-4.28-9.69-4.28q-.51-2.58-.91-5.35c-1.93-13.5-4.82-21.21-4.82-21.21-6.75,1.93-15.42,1-18.31,0a57.67,57.67,0,0,1-20.24,27s-21.21-23.13-34.7-5.78c-11,14.15,4.82,31.8,15.42,33.73-6.3,13.29-23.25,21-32.07,24.22.54,4.18,1.05,8.06,1.5,11.44h66Z" fill="#eaa58b"/>
    <path id="Path_995" data-name="Path 995" d="M684.83,693.92a375.43,375.43,0,0,0,8.52-37.62l-23.13-62.65s9.64-26,1-29.88-27.99,21.23-35.7,41.45c-3.33,8.74-12.43,28.83-21.68,48.82Z" fill="#eaa58b"/>
    <path id="Path_996" data-name="Path 996" d="M589.25,706.42s-55.9-47.23-80.1-64.59-51.94-14.44-51.94-14.44L456,616.78H390c1,7.53,1.65,12.53,1.65,12.53L342.51,804.74,489,793.17l-3.85-54s79,66,124.34,59.76c40.89-5.66,64.12-64.7,75.33-105l-71-39.88C601.69,680.31,589.25,706.42,589.25,706.42Z" fill="#3ec1f3"/>
    <path id="Path_997" data-name="Path 997" d="M420.58,581.12c-10.6-1.93-26.43-19.58-15.42-33.73,13.49-17.35,34.7,5.78,34.7,5.78a57.67,57.67,0,0,0,20.24-27c2.89,1,11.56,1.93,18.31,0,0,0,14.46-4.82,13.49-16.38-1.29-15.52-25.06-8.68-25.06-8.68s-26-19.28-54-6.75C383,507.79,380.1,534.86,382,553.17c1.1,10.51,4.11,34,6.48,52.17C397.33,602.11,414.28,594.41,420.58,581.12Z" fill="#30242a"/>
    <path id="Path_998" data-name="Path 998" d="M688.66,668.35c-4.41,1.82-8.28,2.35-10,1.36-4.32-2.46-5-7.61.13-14.85,0,0-12.19,4.75-15.95-1.43s1.89-11.87,1.89-11.87-8.63,2.38-10.74-5.3,5-11.7,5-11.7-4.86-1.81-5-6.88c-.19-7.37,11.82-13.35,15.28-14.92" fill="none" stroke="#a15842" stroke-linecap="round" stroke-miterlimit="10" stroke-width="8"/>
    <line id="Line_239" data-name="Line 239" x1="3.57" y1="41.69" transform="translate(483.71 697.27)" fill="none" stroke="#4756df" stroke-linecap="round" stroke-miterlimit="10" stroke-width="4"/>
    <path id="Path_999" data-name="Path 999" d="M454.37,611.78a61,61,0,0,1-16-6.08" fill="none" stroke="#a15842" stroke-linecap="round" stroke-miterlimit="10" stroke-width="4"/>
    <line id="Line_240" data-name="Line 240" y1="66.05" x2="24.84" transform="translate(348.77 725.67)" fill="none" stroke="#4756df" stroke-linecap="round" stroke-miterlimit="10" stroke-width="4"/>
    <path id="Path_1000" data-name="Path 1000" d="M479.52,575.79c-1.59,1-7.57,1.76-10-2.83" fill="none" stroke="#a15842" stroke-linecap="round" stroke-miterlimit="10" stroke-width="4"/>
    <circle id="Ellipse_156" data-name="Ellipse 156" cx="2.89" cy="2.89" r="2.89" transform="translate(467.81 548.35)" fill="#a15842"/>
    <line id="Line_241" data-name="Line 241" x2="10.6" y2="5.78" transform="translate(417.69 559.92)" fill="none" stroke="#a15842" stroke-linecap="round" stroke-miterlimit="10" stroke-width="4"/>
    <path id="Path_1001" data-name="Path 1001" d="M688.1,977.54l73.83-21.85c-5.63-19.46-16.4-56.35-23.33-77.84l-92.13,38.46a422,422,0,0,0,41.63,61.23Z" fill="#eaa58b"/>
    <path id="Path_1002" data-name="Path 1002" d="M447.57,836.54,474.3,849.1l-24.56-14.84C448.32,835.74,447.57,836.54,447.57,836.54Z" fill="none"/>
    <path id="Path_1003" data-name="Path 1003" d="M551.52,885.37,574.8,896.3l4.85-4.44Z" fill="none"/>
    <path id="Path_1004" data-name="Path 1004" d="M689.5,979.19a128,128,0,0,0-4,25.07H816.11A29.281,29.281,0,0,0,803.47,990l-37.83-21.42s-1.44-5-3.71-12.9L688.1,977.54C689,978.62,689.5,979.19,689.5,979.19Z" fill="#ffbe21"/>
    <path id="Path_1005" data-name="Path 1005" d="M685.64,1016.78h133l-.41-4.12a29.139,29.139,0,0,0-2.13-8.4H685.49A77.7,77.7,0,0,0,685.64,1016.78Z" fill="#ff7235"/>
    <path id="Path_1006" data-name="Path 1006" d="M620.1,854.86c6.38,22,16.15,43.11,26.37,61.45l92.13-38.46c-1-3.23-2-6.11-2.84-8.54C706.93,786,689.5,719,647.09,712.21c-66.75-10.62-180.3,104.34-197.35,122L474.3,849.1l77.22,36.27,28.13,6.49Z" fill="#a15842"/>
    <path id="Path_1007" data-name="Path 1007" d="M618,854a157,157,0,0,1-3.2-32.4" fill="none" stroke="#30242a" stroke-linecap="round" stroke-miterlimit="10" stroke-width="4"/>
    <path id="Path_1008" data-name="Path 1008" d="M975.76,626.42s-92.37,24.37-133,47.23c-46.27,26-49.16,60.72-78.07,148.43-9.31,28.23-15.89,50.91-22,68.73l79.64,37.6.15-.3s39-5.73,42.41-54c2.57-36,3.8-62.71,16.38-89.64L1096.21,626.4Z" fill="#30242a"/>
    <path id="Path_1009" data-name="Path 1009" d="M699.75,943.76c-27.85,4.22-39.47,9.64-44,22.27l52.61,24.49s28.21-8,43.4-4.09v.05a169.269,169.269,0,0,1,29.67,9.93,443.152,443.152,0,0,0,41-68l-79.64-37.6C731.37,924.16,721.85,940.41,699.75,943.76Z" fill="#4856df"/>
    <path id="Path_1010" data-name="Path 1010" d="M739.09,1004.84l25.66,11.94a228.312,228.312,0,0,0,16.62-20.37,169.268,169.268,0,0,0-29.67-9.93Z" fill="#30242a"/>
    <line id="Line_242" data-name="Line 242" x2="17.86" y2="7.81" transform="translate(725.92 922.98)" fill="none" stroke="#f5ebdd" stroke-linecap="round" stroke-miterlimit="10" stroke-width="4"/>
    <line id="Line_243" data-name="Line 243" x2="17.86" y2="7.82" transform="translate(715.77 935.37)" fill="none" stroke="#f5ebdd" stroke-linecap="round" stroke-miterlimit="10" stroke-width="4"/>
    <circle id="Ellipse_157" data-name="Ellipse 157" cx="10.12" cy="10.12" r="10.12" transform="translate(1059.13 391.72)" fill="#ffbe21"/>
    <circle id="Ellipse_158" data-name="Ellipse 158" cx="40.48" cy="40.48" r="40.48" transform="translate(1064.44 257.27)" fill="#30242a"/>
    <path id="Path_1011" data-name="Path 1011" d="M1077,324.74c2.48,1.14-18.31-48.2-28.91-40.49C1038.07,291.51,1064.43,319,1077,324.74Z" fill="#3ec1f3"/>
    <path id="Path_1012" data-name="Path 1012" d="M1078.11,327.75c2.27,2.71,55.29-15.84,48-26.55C1119,290.91,1075.85,325,1078.11,327.75Z" fill="#3ec1f3"/>
    <path id="Path_1013" data-name="Path 1013" d="M1177.21,521.36l4.64-.72v-1.36A39.872,39.872,0,0,1,1177.21,521.36Z" fill="#30242a"/>
    <path id="Path_1014" data-name="Path 1014" d="M1050.94,510.76c45.12.82,67.89-45.12,73.67-58.83-2-.37-4-.69-6.2-.93-26-2.89-30.84-3.85-39.52-15.42s-9.64-34.7-9.64-34.7,22.48-5,19.28-23.13c-2.89-16.39-22.17-16.39-32.77-4.82,0,0-16.39-3.86-31.81-21.21,0,0-11.28,2.65-19,1.36-2,12.62-1.88,26.74-4.16,38.16-3.86,19.28-1,31.81,10.6,38.56s25.06,1.92,25.06,1.92l-2.89,17.35s-16.83,1.95-30.86,6.36C1005.49,477.21,1015.52,510.12,1050.94,510.76Z" fill="#a15842"/>
    <path id="Path_1015" data-name="Path 1015" d="M1113.59,626.42l5.25-3.56-9.1,3.56Z" fill="#a15842"/>
    <path id="Path_1016" data-name="Path 1016" d="M905.4,514.62s-50.53-69-62.65-82.9c-13.5-15.42-31.81-31.8-37.59-26s10.6,25.06,10.6,25.06l-2.89,62.65s33.2,89.53,69.4,101.21c18.1,5.84,52.48-9.56,76.77-22.6l-37.57-68C911.92,510.3,905.4,514.62,905.4,514.62Z" fill="#a15842"/>
    <path id="Path_1017" data-name="Path 1017" d="M1177.21,521.36s-3.86-21.2-8.68-32.77c-7.21-17.32-19.11-32-43.92-36.66-5.78,13.71-28.55,59.65-73.67,58.83-35.42-.64-45.45-33.55-48.21-55.33a70.79,70.79,0,0,0-8.66,3.28c-10.17,4.75-49.92,30.49-72.6,45.33L959,572c15.79-8.47,27.32-16,27.32-16l-10.6,70.36h134l9.1-3.56,63-42.74A397,397,0,0,0,1177.21,521.36Z" fill="#ff7235"/>
    <path id="Path_1018" data-name="Path 1018" d="M1205.16,472.21c-6.91-32.81-42.41-31.81-42.41-31.81a48.82,48.82,0,0,0-12.53-44.34c-19.28-20.24-46.27-11.57-46.27-11.57,1-11.56,2.89-41.44-22.17-59.75s-56.86-8.68-68.43,5.78c-4.71,5.89-7,13.87-8.37,22.56,7.69,1.29,19-1.36,19-1.36,15.42,17.35,31.81,21.21,31.81,21.21,10.6-11.57,29.88-11.57,32.77,4.82,3.2,18.13-19.28,23.13-19.28,23.13s1,23.13,9.64,34.7,13.5,12.53,39.52,15.42c2.16.24,4.22.56,6.2.93,24.81,4.65,36.71,19.34,43.92,36.66,4.82,11.57,8.68,32.77,8.68,32.77a39.871,39.871,0,0,0,4.59-2.08C1191.17,514.42,1211.12,500.51,1205.16,472.21Z" fill="#30242a"/>
    <line id="Line_244" data-name="Line 244" y1="4.81" x2="7.71" transform="translate(1067.33 379.68)" fill="none" stroke="#30242a" stroke-linecap="round" stroke-miterlimit="10" stroke-width="4"/>
    <path id="Path_1019" data-name="Path 1019" d="M1018,407.12c1.6,1,7.57,1.76,10-2.83" fill="none" stroke="#30242a" stroke-linecap="round" stroke-miterlimit="10" stroke-width="4"/>
    <circle id="Ellipse_159" data-name="Ellipse 159" cx="2.89" cy="2.89" r="2.89" transform="translate(1030.83 379.65)" fill="#30242a"/>
    <circle id="Ellipse_160" data-name="Ellipse 160" cx="2.89" cy="2.89" r="2.89" transform="translate(1008.53 375.82)" fill="#30242a"/>
    <path id="Path_1020" data-name="Path 1020" d="M1019.13,386.42s-2.63,6.59-2,7.91a4.93,4.93,0,0,0,2,2" fill="none" stroke="#30242a" stroke-linecap="round" stroke-miterlimit="10" stroke-width="4"/>
    <path id="Path_1021" data-name="Path 1021" d="M822,506.44a7.4,7.4,0,0,0,4.35-1.46c3.41-3.41,2.72-8.4-3.94-13.84,0,0,12.62,1.31,14.54-5.44s-4.81-10.6-4.81-10.6,8.67,0,8.67-7.71-7.71-9.64-7.71-9.64,4.08-2.95,2.89-7.71c-1.93-7.71-18.31-9.64-18.31-9.64l-2.26-2.76" fill="none" stroke="#30242a" stroke-linecap="round" stroke-linejoin="round" stroke-width="8"/>
    <path id="Path_1022" data-name="Path 1022" d="M1037,433.6a111.522,111.522,0,0,0,11.88-5.55" fill="none" stroke="#30242a" stroke-linecap="round" stroke-miterlimit="10" stroke-width="4"/>
    <line id="Line_245" data-name="Line 245" x2="10.13" y2="13.71" transform="translate(907.8 514.4)" fill="none" stroke="#30242a" stroke-linecap="round" stroke-miterlimit="10" stroke-width="4"/>
    <line id="Line_246" data-name="Line 246" x1="4.92" y2="30.88" transform="translate(984.7 524.24)" fill="none" stroke="#a15842" stroke-linecap="round" stroke-miterlimit="10" stroke-width="4"/>
    <line id="Line_247" data-name="Line 247" x1="0.48" y1="49.63" transform="translate(1108.29 537.27)" fill="none" stroke="#a15842" stroke-linecap="round" stroke-miterlimit="10" stroke-width="4"/>
    <path id="Path_1023" data-name="Path 1023" d="M1164.21,441.75a88.592,88.592,0,0,1-5.57,15.14" fill="none" stroke="#000" stroke-linecap="round" stroke-linejoin="round" stroke-width="4"/>
    <line id="Line_248" data-name="Line 248" x1="2.73" y2="14.32" transform="translate(1102.99 385.6)" fill="none" stroke="#000" stroke-linecap="round" stroke-linejoin="round" stroke-width="4"/>
    <path id="Path_1024" data-name="Path 1024" d="M1047.09,627.39s-82.9,26-129.16,48.19c-46,22-40.48,73.25-31.81,162.89,3.07,31.69,6.66,56.5,8.48,76.15h88c4.52-2.52,31.2-19.65,15.29-66.51-11.62-34.21-21.65-56.87-21.65-86.59h73.6a80.441,80.441,0,0,0,80.41-78.143l1.61-56Z" fill="#30242a"/>
    <path id="Path_1025" data-name="Path 1025" d="M877.82,978c-23.44,15.62-31.67,25.44-30.45,38.81l58-.08s22.17-19.19,37.59-22.08a164.429,164.429,0,0,1,31-2.89c3.53-17.29,7.33-43.24,8-76.78l.64-.33h-88C897.67,947.63,895.72,966.05,877.82,978Z" fill="#4856df"/>
    <path id="Path_1026" data-name="Path 1026" d="M939.33,1016.64h28.31s3.08-8.61,6.4-24.87a164.45,164.45,0,0,0-31,2.89Z" fill="#30242a"/>
    <line id="Line_249" data-name="Line 249" x1="22.72" transform="translate(952.63 763.29)" fill="none" stroke="#000" stroke-linecap="round" stroke-linejoin="round" stroke-width="4"/>
    <line id="Line_250" data-name="Line 250" x2="21.73" transform="translate(892.83 952.69)" fill="none" stroke="#f5ebdd" stroke-linecap="round" stroke-miterlimit="10" stroke-width="4"/>
    <line id="Line_251" data-name="Line 251" x2="21.73" transform="translate(888 968.11)" fill="none" stroke="#f5ebdd" stroke-linecap="round" stroke-miterlimit="10" stroke-width="4"/>
    <circle id="Ellipse_161" data-name="Ellipse 161" cx="42.89" cy="42.89" r="42.89" transform="translate(551.67 714.13)" fill="#fff"/>
    <rect id="Rectangle_203" data-name="Rectangle 203" width="24.1" height="38.55" rx="12.05" transform="translate(582.51 731.96)" fill="#4856df"/>
    <line id="Line_252" data-name="Line 252" y2="13.5" transform="translate(594.56 766.66)" fill="none" stroke="#4856df" stroke-linecap="round" stroke-miterlimit="10" stroke-width="4"/>
    <line id="Line_253" data-name="Line 253" x2="13.81" transform="translate(587.65 780.16)" fill="none" stroke="#4856df" stroke-linecap="round" stroke-miterlimit="10" stroke-width="4"/>
    <circle id="Ellipse_162" data-name="Ellipse 162" cx="15.9" cy="15.9" r="15.9" transform="translate(276 438.47)" fill="#fff"/>
    <circle id="Ellipse_163" data-name="Ellipse 163" cx="15.9" cy="15.9" r="15.9" transform="translate(324.2 438.47)" fill="#fff"/>
    <circle id="Ellipse_164" data-name="Ellipse 164" cx="15.9" cy="15.9" r="15.9" transform="translate(372.39 438.47)" fill="#fff"/>
    <path id="Path_1027" data-name="Path 1027" d="M637,409.56a29.32,29.32,0,0,1,29.32,29.32V799.51A29.32,29.32,0,0,1,637,828.83H276.41a29.32,29.32,0,0,1-29.32-29.32V438.88a29.32,29.32,0,0,1,29.32-29.32H637m0-4H276.41a33.36,33.36,0,0,0-33.32,33.32V799.51a33.36,33.36,0,0,0,33.32,33.32H637a33.36,33.36,0,0,0,33.32-33.32V438.88A33.36,33.36,0,0,0,637,405.56Z" fill="#f5ebdd"/>
    <path id="Path_1028" data-name="Path 1028" d="M1104.84,642.81h177.43v294H1024V723.69a80.888,80.888,0,0,1,80.83-80.88Z" fill="#ffb7d5"/>
    <path id="Path_1029" data-name="Path 1029" d="M1237.93,936.94a34.7,34.7,0,0,1,65.54,0,34.72,34.72,0,0,1,30.86-23.23,86.592,86.592,0,0,0-10.89-15.27l-12.6-14.11A28.71,28.71,0,0,1,1307,851.6l10.7-19.88h0c-3,3-20.36,19.28-46.71,19.28s-43.7-16.25-46.7-19.28h0L1235,851.6a28.73,28.73,0,0,1-3.86,32.73l-12.6,14.11a86.414,86.414,0,0,0-10.91,15.3A34.7,34.7,0,0,1,1237.93,936.94Z" fill="#4756df"/>
    <path id="Path_1030" data-name="Path 1030" d="M1336.24,957a34.72,34.72,0,0,0-32.77,23.3,34.69,34.69,0,0,0-65.54,0,34.71,34.71,0,0,0-41.45-22.2,86.329,86.329,0,0,0,24.82,58.66h99.28a86.289,86.289,0,0,0,24.81-58.53A34.9,34.9,0,0,0,1336.24,957Z" fill="#4756df"/>
    <path id="Path_1031" data-name="Path 1031" d="M1270.94,851c26.35,0,43.7-16.25,46.71-19.28h-93.41C1227.24,834.75,1244.6,851,1270.94,851Z" fill="#30242a"/>
    <path id="Path_1032" data-name="Path 1032" d="M1237.93,980.32a34.69,34.69,0,0,1,65.54,0,34.69,34.69,0,0,1,41.92-22.07,86.35,86.35,0,0,0-11.06-44.54,34.72,34.72,0,0,0-30.86,23.23,34.7,34.7,0,0,0-65.54,0,34.7,34.7,0,0,0-30.4-23.2,86.479,86.479,0,0,0-11,44.38,34.71,34.71,0,0,1,41.45,22.2Z" fill="#3ec1f3"/>
    <path id="Path_1033" data-name="Path 1033" d="M1277.86,848.27c1.9-11.66,10.57-57.92,32.36-83" fill="none" stroke="#30242a" stroke-linecap="round" stroke-miterlimit="10" stroke-width="4"/>
    <path id="Path_1034" data-name="Path 1034" d="M1267.79,848.6c-.14-13.24-1.5-78.3-14.44-117.12" fill="none" stroke="#30242a" stroke-linecap="round" stroke-miterlimit="10" stroke-width="4"/>
    <ellipse id="Ellipse_165" data-name="Ellipse 165" cx="37.8" cy="8.5" rx="37.8" ry="8.5" transform="translate(1283.667 802.682) rotate(-23.75)" fill="#30242a"/>
    <ellipse id="Ellipse_166" data-name="Ellipse 166" cx="20.91" cy="7.3" rx="20.91" ry="7.3" transform="translate(1300.923 692.945) rotate(-53.51)" fill="#30242a"/>
    <ellipse id="Ellipse_167" data-name="Ellipse 167" cx="45.61" cy="8.06" rx="45.61" ry="8.06" transform="translate(1174.187 800.615) rotate(-8.6)" fill="#30242a"/>
    <path id="Path_1035" data-name="Path 1035" d="M1204.28,744.71v.07a16.86,16.86,0,0,1-13.76,30.64v.07c20.88,9.38,40.9,10.09,44.72,1.59S1225.16,754.09,1204.28,744.71Z" fill="#ff7235"/>
    <path id="Path_1036" data-name="Path 1036" d="M1266,676.72c-4.45-1.15-10.23,5.57-14.45,16-5.08-12.63-12.45-21.08-17.41-19.44s-5.86,12.81-2.42,26c-9.58-5.84-18.23-7.8-21.11-4.23-3.68,4.56,3.41,16.38,15.84,26.41a70.723,70.723,0,0,0,11.37,7.57,16.85,16.85,0,0,1,26.73-9.15,71.844,71.844,0,0,0,4.45-12.46C1273,691.92,1271.67,678.19,1266,676.72Z" fill="#ff7235"/>
    <path id="Path_1037" data-name="Path 1037" d="M1362.9,746.89c-1.37-4.38-10.13-5.73-21.19-3.82,8-11,11.32-21.71,7.3-25.06s-14,1.81-23.34,11.69c-.11-11.22-3-19.59-7.57-20.15-5.81-.71-12.1,11.56-14,27.41a70.92,70.92,0,0,0-.41,13.65,16.85,16.85,0,0,1,21.9,17.85,71.575,71.575,0,0,0,12.93-2.81C1353.71,760.88,1364.65,752.48,1362.9,746.89Z" fill="#ff7235"/>
    <path id="Path_1038" data-name="Path 1038" d="M1319.57,753.71a16.84,16.84,0,0,0-15.93-3.1c.54,7.54,2.45,13.31,5.32,15.46,2.67,2.48,8.87,3.3,16.58,2.39a16.83,16.83,0,0,0-5.97-14.75Z" fill="#30242a"/>
    <path id="Path_1039" data-name="Path 1039" d="M1248.88,717.11A16.82,16.82,0,0,0,1237.83,729c6.68,3.53,12.59,5,15.93,3.66,3.52-1,7.49-5.78,10.8-12.81a16.83,16.83,0,0,0-15.68-2.74Z" fill="#30242a"/>
    <path id="Path_1040" data-name="Path 1040" d="M1206.14,773a8.19,8.19,0,0,1,6.72-14.87,16.849,16.849,0,0,0-8.61-13.37l-13.76,30.64a16.82,16.82,0,0,0,15.65-2.4Z" fill="#f5ebdd"/>
    <path id="Path_1041" data-name="Path 1041" d="M1202.63,762.5a8.19,8.19,0,0,0,3.51,10.52,16.82,16.82,0,0,0,6.72-14.87,8.19,8.19,0,0,0-10.23,4.35Z" fill="#4856df"/>
    <circle id="Ellipse_168" data-name="Ellipse 168" cx="15.9" cy="15.9" r="15.9" transform="translate(849.5 233.17)" fill="#fff"/>
    <circle id="Ellipse_169" data-name="Ellipse 169" cx="15.9" cy="15.9" r="15.9" transform="translate(897.69 233.17)" fill="#fff"/>
    <circle id="Ellipse_170" data-name="Ellipse 170" cx="15.9" cy="15.9" r="15.9" transform="translate(945.88 233.17)" fill="#fff"/>
    <path id="Path_1042" data-name="Path 1042" d="M1210.53,204.25a29.33,29.33,0,0,1,29.33,29.33V594.21a29.33,29.33,0,0,1-29.33,29.32H849.91a29.33,29.33,0,0,1-29.33-29.32V233.58a29.33,29.33,0,0,1,29.33-29.33h360.62m0-4H849.91a33.37,33.37,0,0,0-33.33,33.33V594.21a33.36,33.36,0,0,0,33.33,33.32h360.62a33.36,33.36,0,0,0,33.33-33.32V233.58a33.37,33.37,0,0,0-33.33-33.33Z" fill="#f5ebdd"/>
    <path id="Path_1043" data-name="Path 1043" d="M816.72,430.76s-21.2,0-24.09,8.67,3.85,15.43,3.85,15.43-11.56,5.78-3.85,16.38c0,0-5.79,9.64,3.85,15.42,0,0-5.78,6.75,3.86,13.5s23.13,7.71,26,4.82c3.41-3.41,2.72-8.4-3.94-13.84,0,0,12.62,1.31,14.54-5.44s-4.81-10.6-4.81-10.6,8.67,0,8.67-7.71-7.71-9.64-7.71-9.64,4.08-2.95,2.89-7.71c-1.42-5.67-10.64-8.21-15.43-9.16a33.319,33.319,0,0,0-3.85-.48Z" fill="#a15842"/>
    <path id="Path_1044" data-name="Path 1044" d="M797.59,487.47A139.183,139.183,0,0,0,827,493" fill="none" stroke="#30242a" stroke-linecap="round" stroke-miterlimit="10" stroke-width="4"/>
    <path id="Path_1045" data-name="Path 1045" d="M794,472a153.658,153.658,0,0,0,42.68,4.39" fill="none" stroke="#30242a" stroke-linecap="round" stroke-miterlimit="10" stroke-width="4"/>
    <path id="Path_1046" data-name="Path 1046" d="M797.05,456a118.339,118.339,0,0,0,40.42,2.58" fill="none" stroke="#30242a" stroke-linecap="round" stroke-miterlimit="10" stroke-width="4"/>
    <path id="Path_1047" data-name="Path 1047" d="M1106.84,613.93s-78.07,20.25-105.06,40.49c-12.19,9.14-27,26-31.8,33.73s-25.06,36.63-15.42,37.59,20.24-16.38,20.24-16.38-5.8,21.2-4.8,27.95,10.6,4.82,10.6,4.82c7.71,7.71,14.46-1.93,14.46-1.93,13.49,8.67,28-37.59,28-37.59a91,91,0,0,0,21.69-14.94s86.26-.48,113.25-24.58c19.16-17.1,23.89-50.83,23.88-82.93h-75Z" fill="#a15842"/>
    <line id="Line_254" data-name="Line 254" y1="4.4" x2="17.6" transform="translate(1107.56 607.19)" fill="none" stroke="#30242a" stroke-linecap="round" stroke-miterlimit="10" stroke-width="4"/>
    <path id="Path_1048" data-name="Path 1048" d="M971,717c5-17,9-27,12-33.19" fill="none" stroke="#30242a" stroke-linecap="round" stroke-miterlimit="10" stroke-width="4"/>
    <path id="Path_1049" data-name="Path 1049" d="M996.48,689.6c-8.68,18.7-14,41.26-16.48,52.4" fill="none" stroke="#30242a" stroke-linecap="round" stroke-miterlimit="10" stroke-width="4"/>
    <path id="Path_1050" data-name="Path 1050" d="M1010,696.34c-5.67,13-10.82,32.56-14,44.66" fill="none" stroke="#30242a" stroke-linecap="round" stroke-miterlimit="10" stroke-width="4"/>
    <path id="Path_1051" data-name="Path 1051" d="M987.48,647.67c-23.49,8.36-49.71,18.4-69.55,27.91-35.56,17-40.33,51.51-36.66,107.68" fill="none" stroke="#000" stroke-linecap="round" stroke-linejoin="round" stroke-width="4"/>
    <path id="Path_1052" data-name="Path 1052" d="M422.57,924.29c-39.43,8-67.53,18.28-67.53,18.28L317.1,925.76l.08-.83-88.41,80.29,1.93,2.31a25.72,25.72,0,0,0,19.75,9.25H427.9Z" fill="#eaa58b"/>
    <path id="Path_1053" data-name="Path 1053" d="M355,942.57s28.1-10.33,67.53-18.28l5.33,92.49H554.51c34.24,0,64.25-24,70.63-57.64,4.25-22.45-2.39-46.49-26.25-62.84-38.38-26.3-120.48-60.72-141.68-67.47l-116.63,27c-22.17,24.1-17.35,63.61-17.35,63.61Z" fill="#a15842"/>
    <path id="Path_1054" data-name="Path 1054" d="M422.86,925.54c26.22-5.07,55.51-9.46,96.51-7.55" fill="none" stroke="#30242a" stroke-linecap="round" stroke-miterlimit="10" stroke-width="4"/>
    <path id="Path_1055" data-name="Path 1055" d="M459.21,827.83c18.55,5.91,83.73,33,125.44,57.3" fill="none" stroke="#30242a" stroke-linecap="round" stroke-miterlimit="10" stroke-width="4"/>
    <path id="Path_1056" data-name="Path 1056" d="M336,925.63l-97.29,88.29a25.609,25.609,0,0,0,11.77,2.86H321.3L355,942.57a72.07,72.07,0,0,0-19-16.94Z" fill="#ffbe21"/>
    <path id="Path_1057" data-name="Path 1057" d="M323.23,919.43l-94.46,85.79,1.93,2.31a25.609,25.609,0,0,0,8,6.39L336,925.63a64.247,64.247,0,0,0-12.77-6.2Z" fill="#ff7235"/>
    <line id="Line_255" data-name="Line 255" y2="17.08" transform="translate(301.54 999.92)" fill="none" stroke="#30242a" stroke-linecap="round" stroke-miterlimit="10" stroke-width="4"/>
    <line id="Line_256" data-name="Line 256" y2="17.08" transform="translate(286.12 999.92)" fill="none" stroke="#30242a" stroke-linecap="round" stroke-miterlimit="10" stroke-width="4"/>
    <path id="Path_1058" data-name="Path 1058" d="M392.05,627.69c3-.28,9.26-.79,15.52-.79" fill="none" stroke="#4756df" stroke-linecap="round" stroke-miterlimit="10" stroke-width="4"/>
    <path id="Path_1059" data-name="Path 1059" d="M670.22,593.65s18.8-6.23,24,1.61.38,16.4.38,16.4,13.09,2.59,8.32,15.25c0,0,8.39,8,.39,16.4,0,0,7.6,5.13-.15,14.48s-20.9,14-24.57,11.92c-4.32-2.46-5-7.61.13-14.85,0,0-12.19,4.75-15.95-1.43s1.89-11.87,1.89-11.87-8.63,2.38-10.74-5.3,5-11.7,5-11.7-4.86-1.81-5-6.88c-.19-7.37,12.74-13.79,16.2-15.35Z" fill="#eaa58b"/>
    <path id="Path_1060" data-name="Path 1060" d="M656,625.91c7.42-1.3,26.27-5.32,38.75-14" fill="none" stroke="#a15842" stroke-linecap="round" stroke-miterlimit="10" stroke-width="4"/>
    <path id="Path_1061" data-name="Path 1061" d="M659,643.92A106,106,0,0,0,703,628" fill="none" stroke="#a15842" stroke-linecap="round" stroke-miterlimit="10" stroke-width="4"/>
    <path id="Path_1062" data-name="Path 1062" d="M673,658.59c2.67-.94,20.09-7.19,30.66-13.89" fill="none" stroke="#a15842" stroke-linecap="round" stroke-miterlimit="10" stroke-width="4"/>
    <path id="Path_1063" data-name="Path 1063" d="M406.17,782c-17.45,2.13-36.92,5.28-58.84,9.2l30.84-82.89,13.49-79s-44.33,4.82-64.57,28c-18.67,21.33-77.11,120.48-54,172.53S365.64,863.53,382,858.71c8.93-2.63,22.46-8.69,36.35-13.2Z" fill="#3ec1f3"/>
    <path id="Path_1064" data-name="Path 1064" d="M451.42,840.4c21.21,2.89,45.3,13.49,49.16,0,0,0,13-.33,8.9-12.69,0,0,6.52-.81,7.48-5.63,1.93-9.63-21.2-18.31-21.2-18.31s18.31,2.89,22.17-1c4.91-4.92.13-12.75-29.78-20-21.72-5.26-48-4.94-82-.78l12.21,63.47C430,841.76,441.78,839.08,451.42,840.4Z" fill="#eaa58b"/>
    <path id="Path_1065" data-name="Path 1065" d="M504,805c-10.27-3.94-29.77-10.49-43.9-12.79" fill="none" stroke="#a15842" stroke-linecap="round" stroke-miterlimit="10" stroke-width="4"/>
    <path id="Path_1066" data-name="Path 1066" d="M509.88,827.31c-13.4-6-39.28-17.12-53.16-19.2" fill="none" stroke="#a15842" stroke-linecap="round" stroke-miterlimit="10" stroke-width="4"/>
    <path id="Path_1067" data-name="Path 1067" d="M499.49,841.4c-10.33-5.24-31-15.08-45.66-17.87" fill="none" stroke="#a15842" stroke-linecap="round" stroke-miterlimit="10" stroke-width="4"/>
    <path id="Path_1068" data-name="Path 1068" d="M406.34,783.44c-9.42,1.22-39.55,5.38-84.56,14.07" fill="none" stroke="#4756df" stroke-linecap="round" stroke-miterlimit="10" stroke-width="4"/>
    <circle id="Ellipse_171" data-name="Ellipse 171" cx="42.89" cy="42.89" r="42.89" transform="translate(1125.16 508.83)" fill="#fff"/>
    <rect id="Rectangle_204" data-name="Rectangle 204" width="24.1" height="38.55" rx="12.05" transform="translate(1156 526.66)" fill="#4856df"/>
    <line id="Line_257" data-name="Line 257" y2="13.5" transform="translate(1168.05 561.36)" fill="none" stroke="#4856df" stroke-linecap="round" stroke-miterlimit="10" stroke-width="4"/>
    <line id="Line_258" data-name="Line 258" x2="13.82" transform="translate(1161.14 574.86)" fill="none" stroke="#4856df" stroke-linecap="round" stroke-miterlimit="10" stroke-width="4"/>
  </g>
</svg>
