<svg xmlns="http://www.w3.org/2000/svg" width="38.847" height="37.13" viewBox="0 0 38.847 37.13">
  <g id="Component_13_12" data-name="Component 13 – 12" transform="translate(1 1)">
    <circle id="Ellipse_38" data-name="Ellipse 38" cx="11.921" cy="11.921" r="11.921" transform="translate(6.533 5.088)" fill="#fff" stroke="#fff" stroke-miterlimit="10" stroke-width="2"/>
    <path id="Path_141" data-name="Path 141" d="M104.215,65.693a15.1,15.1,0,0,1,15.1-15.1h0a15.1,15.1,0,0,1,15.1,15.1" transform="translate(-100.867 -50.595)" fill="none" stroke="#fff" stroke-miterlimit="10" stroke-width="2"/>
    <path id="Path_142" data-name="Path 142" d="M28.413,364.575a.674.674,0,0,1-.674.674H25.745a.674.674,0,0,1-.674-.674v-6.9a.674.674,0,0,1,.674-.674h1.994a.674.674,0,0,1,.674.674Z" transform="translate(-25.071 -344.038)" fill="#fff" stroke="#fff" stroke-miterlimit="10" stroke-width="2"/>
    <path id="Path_143" data-name="Path 143" d="M820.412,364.575a.674.674,0,0,1-.674.674h-1.994a.674.674,0,0,1-.674-.674v-6.9a.674.674,0,0,1,.674-.674h1.994a.674.674,0,0,1,.674.674Z" transform="translate(-783.565 -344.038)" fill="#fff" stroke="#fff" stroke-miterlimit="10" stroke-width="2"/>
    <path id="Path_144" data-name="Path 144" d="M385.556,803.682a1.662,1.662,0,0,1-1.661,1.661h-1.161a1.661,1.661,0,0,1-1.661-1.661v-.019A1.662,1.662,0,0,1,382.734,802h1.161a1.662,1.662,0,0,1,1.661,1.661Z" transform="translate(-366.012 -770.214)" fill="#fff" stroke="#fff" stroke-miterlimit="10" stroke-width="2"/>
    <path id="Path_145" data-name="Path 145" d="M104.4,516.851a13.874,13.874,0,0,0,11.074,13.588" transform="translate(-101.049 -497.126)" fill="none" stroke="#fff" stroke-miterlimit="10" stroke-width="2"/>
  </g>
</svg>
