<svg xmlns="http://www.w3.org/2000/svg" width="20.172" height="20.172" viewBox="0 0 20.172 20.172">
  <g id="Group_1524" data-name="Group 1524" transform="translate(-9.166 -9.165)">
    <path id="Path_1127" data-name="Path 1127" d="M28.35,29.337H15.094a.988.988,0,0,1-.988-.988V22.091a.987.987,0,0,1,.266-.674L21.3,13.991l-2.057-2.346-8.1,9.094v7.61a.988.988,0,1,1-1.976,0V20.363a.988.988,0,0,1,.25-.657l9.1-10.21a.953.953,0,0,1,.741-.331.988.988,0,0,1,.739.337l9.1,10.379a.987.987,0,0,1,.245.651v7.817A.988.988,0,0,1,28.35,29.337ZM16.082,27.361h11.28V20.9l-4.75-5.419-6.53,7Z" transform="translate(0 0)" fill="#3ad29f"/>
  </g>
</svg>
